<svg width="39" height="39" viewBox="0 0 39 39" fill="none" xmlns="http://www.w3.org/2000/svg">
<path d="M0.400024 19.2C0.400024 8.59613 8.99615 0 19.6 0C30.2039 0 38.8 8.59613 38.8 19.2C38.8 29.8039 30.2039 38.4 19.6 38.4C8.99615 38.4 0.400024 29.8039 0.400024 19.2Z" fill="#84CC16"/>
<path d="M8.93336 8.53333C12.1532 11.1019 14.7752 14.3407 16.6172 18.0247C18.4592 21.7087 19.4771 25.7496 19.6 29.8667C20.56 22.592 21.2 19.7333 23.8667 14.9333M23.8667 14.9333C28.1334 14.9333 30.2667 12.8 30.2667 8.53333C26 8.53333 23.8667 10.6667 23.8667 14.9333ZM25.3709 10.2399C23.1573 8.81596 20.4955 8.26067 17.8973 8.68081C15.2991 9.10096 12.9479 10.4669 11.296 12.5159C9.64409 14.5648 8.80802 17.1522 8.9486 19.7804C9.08919 22.4087 10.1965 24.8921 12.0576 26.7532C13.9187 28.6143 16.4021 29.7216 19.0303 29.8621C21.6585 30.0027 24.2459 29.1667 26.2949 27.5147C28.3439 25.8628 29.7098 23.5116 30.1299 20.9134C30.5501 18.3152 29.9948 15.6534 28.5709 13.4399" stroke="#FAFAFA" stroke-width="2.4" stroke-linecap="round" stroke-linejoin="round"/>
</svg>
