<svg width="124" height="39" viewBox="0 0 124 39" fill="none" xmlns="http://www.w3.org/2000/svg">
<path d="M0.400024 19.2C0.400024 8.59613 8.99615 0 19.6 0C30.2039 0 38.8 8.59613 38.8 19.2C38.8 29.8039 30.2039 38.4 19.6 38.4C8.99615 38.4 0.400024 29.8039 0.400024 19.2Z" fill="#84CC16"/>
<path d="M8.93336 8.53333C12.1532 11.1019 14.7752 14.3407 16.6172 18.0247C18.4592 21.7087 19.4771 25.7496 19.6 29.8667C20.56 22.592 21.2 19.7333 23.8667 14.9333M23.8667 14.9333C28.1334 14.9333 30.2667 12.8 30.2667 8.53333C26 8.53333 23.8667 10.6667 23.8667 14.9333ZM25.3709 10.2399C23.1573 8.81596 20.4955 8.26067 17.8973 8.68081C15.2991 9.10096 12.9479 10.4669 11.296 12.5159C9.64409 14.5648 8.80802 17.1522 8.9486 19.7804C9.08919 22.4087 10.1965 24.8921 12.0576 26.7532C13.9187 28.6143 16.4021 29.7216 19.0303 29.8621C21.6585 30.0027 24.2459 29.1667 26.2949 27.5147C28.3439 25.8628 29.7098 23.5116 30.1299 20.9134C30.5501 18.3152 29.9948 15.6534 28.5709 13.4399" stroke="#FAFAFA" stroke-width="2.4" stroke-linecap="round" stroke-linejoin="round"/>
<path d="M53.2516 27.2V11.45H56.0844V24.8265H63.7844V27.2H53.2516ZM65.5672 27.2V15.3875H68.2688V27.2H65.5672ZM66.9125 13.7578C66.3511 13.7578 65.8917 13.5791 65.5344 13.2218C65.1771 12.8645 64.9985 12.4052 64.9985 11.8437C64.9985 11.275 65.1771 10.8156 65.5344 10.4656C65.8917 10.1083 66.3511 9.92964 66.9125 9.92964C67.4813 9.92964 67.9406 10.1083 68.2906 10.4656C68.6479 10.8156 68.8266 11.275 68.8266 11.8437C68.8266 12.4052 68.6479 12.8645 68.2906 13.2218C67.9406 13.5791 67.4813 13.7578 66.9125 13.7578ZM72.2281 27.2V13.4843C72.2281 12.5364 72.4578 11.851 72.9172 11.4281C73.3839 11.0052 74.1459 10.7937 75.2031 10.7937H77.2156V12.85H75.5203C75.3016 12.85 75.1485 12.8973 75.061 12.9921C74.9808 13.0796 74.9406 13.2364 74.9406 13.4625V27.2H72.2281ZM70.5875 17.4437V15.3875H77.3141V17.4437H70.5875ZM84.2922 27.4734C83.1474 27.4734 82.1339 27.2218 81.2516 26.7187C80.3693 26.2156 79.6766 25.501 79.1735 24.575C78.6703 23.6489 78.4188 22.5552 78.4188 21.2937C78.4188 20.0322 78.6667 18.9385 79.1625 18.0125C79.6584 17.0864 80.3438 16.3718 81.2188 15.8687C82.0938 15.3656 83.1037 15.114 84.2485 15.114C84.8901 15.114 85.5354 15.2125 86.1844 15.4093C86.8406 15.6062 87.4386 15.9562 87.9781 16.4593C88.525 16.9552 88.9662 17.6442 89.3016 18.5265C89.637 19.4015 89.8047 20.5135 89.8047 21.8625H80.1578V20.1453H87.3985L86.9828 20.7687C86.9391 19.8864 86.786 19.1791 86.5235 18.6468C86.2682 18.1072 85.9365 17.7171 85.5281 17.4765C85.1271 17.2286 84.6787 17.1046 84.1828 17.1046C83.5558 17.1046 83.0271 17.276 82.5969 17.6187C82.1667 17.9541 81.8386 18.439 81.6125 19.0734C81.3938 19.7005 81.2844 20.4442 81.2844 21.3046C81.2844 22.588 81.536 23.5942 82.0391 24.3234C82.5422 25.0453 83.286 25.4062 84.2703 25.4062C84.9412 25.4062 85.5136 25.2348 85.9875 24.8921C86.4615 24.5494 86.8151 24.039 87.0485 23.3609L89.5641 24.0609C89.2797 24.8265 88.875 25.4609 88.35 25.964C87.825 26.4671 87.2125 26.8463 86.5125 27.1015C85.8125 27.3494 85.0724 27.4734 84.2922 27.4734ZM92.3203 27.2V15.3875H95.0219V27.2H92.3203ZM93.6656 13.7578C93.1042 13.7578 92.6448 13.5791 92.2875 13.2218C91.9302 12.8645 91.7516 12.4052 91.7516 11.8437C91.7516 11.275 91.9302 10.8156 92.2875 10.4656C92.6448 10.1083 93.1042 9.92964 93.6656 9.92964C94.2344 9.92964 94.6938 10.1083 95.0438 10.4656C95.4011 10.8156 95.5797 11.275 95.5797 11.8437C95.5797 12.4052 95.4011 12.8645 95.0438 13.2218C94.6938 13.5791 94.2344 13.7578 93.6656 13.7578ZM98.2594 27.2V15.3875H100.852V18.089L100.775 17.6078C101.118 16.864 101.621 16.2625 102.284 15.8031C102.948 15.3437 103.754 15.114 104.702 15.114C105.584 15.114 106.32 15.3145 106.911 15.7156C107.509 16.1093 107.957 16.6671 108.256 17.389C108.563 18.1036 108.716 18.9421 108.716 19.9046V27.2H106.003V20.0906C106.003 19.201 105.839 18.501 105.511 17.9906C105.19 17.4729 104.647 17.214 103.881 17.214C102.999 17.214 102.292 17.5713 101.759 18.2859C101.227 19.0005 100.961 20.0687 100.961 21.4906V27.2H98.2594ZM116.383 31.739C114.531 31.739 113.16 31.4875 112.27 30.9843C111.388 30.4885 110.947 29.7192 110.947 28.6765C110.947 28.0567 111.104 27.5354 111.417 27.1125C111.738 26.6895 112.216 26.3723 112.85 26.1609C112.58 25.9786 112.361 25.7453 112.194 25.4609C112.033 25.1765 111.953 24.8666 111.953 24.5312C111.953 24.101 112.088 23.7218 112.358 23.3937C112.628 23.0583 113.01 22.8177 113.506 22.6718C112.93 22.3218 112.478 21.8588 112.15 21.2828C111.829 20.6994 111.669 20.0286 111.669 19.2703C111.669 18.4317 111.869 17.7026 112.27 17.0828C112.679 16.4557 113.247 15.9708 113.977 15.6281C114.713 15.2854 115.577 15.114 116.569 15.114C117.56 15.114 118.424 15.2854 119.161 15.6281C119.897 15.9708 120.47 16.4557 120.878 17.0828C121.286 17.7026 121.491 18.439 121.491 19.2921C121.491 20.1234 121.286 20.8489 120.878 21.4687C120.477 22.0885 119.905 22.5697 119.161 22.9125C118.417 23.2552 117.546 23.4265 116.547 23.4265H115.661C114.866 23.4265 114.469 23.6489 114.469 24.0937C114.469 24.5239 114.863 24.739 115.65 24.739H118.034C118.888 24.739 119.598 24.8411 120.167 25.0453C120.736 25.2494 121.184 25.5192 121.513 25.8546C121.848 26.1901 122.085 26.5656 122.223 26.9812C122.369 27.3968 122.442 27.8161 122.442 28.239C122.442 29.4276 121.99 30.3062 121.086 30.875C120.182 31.451 118.785 31.739 116.897 31.739H116.383ZM116.427 29.9015H116.93C118.767 29.9015 119.686 29.351 119.686 28.25C119.686 27.8125 119.522 27.4515 119.194 27.1671C118.873 26.8755 118.297 26.7296 117.466 26.7296H115.738C115.176 26.7296 114.688 26.8536 114.272 27.1015C113.864 27.3421 113.659 27.7468 113.659 28.3156C113.659 28.8479 113.885 29.2453 114.338 29.5078C114.79 29.7703 115.486 29.9015 116.427 29.9015ZM116.569 21.6765C117.32 21.6765 117.896 21.4687 118.297 21.0531C118.698 20.6375 118.898 20.0505 118.898 19.2921C118.898 18.5338 118.698 17.9432 118.297 17.5203C117.896 17.0901 117.32 16.875 116.569 16.875C115.825 16.875 115.253 17.0864 114.852 17.5093C114.451 17.9322 114.25 18.5265 114.25 19.2921C114.25 20.0505 114.451 20.6375 114.852 21.0531C115.253 21.4687 115.825 21.6765 116.569 21.6765ZM118.395 16.6343V15.4421C118.395 14.7713 118.607 14.2463 119.03 13.8671C119.453 13.4807 120.025 13.2875 120.747 13.2875H121.994V15.3437H120.736C120.51 15.3437 120.36 15.3838 120.288 15.464C120.222 15.5442 120.189 15.7083 120.189 15.9562V16.6343H118.395Z" fill="#3F6212"/>
</svg>
