<svg width="91" height="40" viewBox="0 0 91 40" fill="none" xmlns="http://www.w3.org/2000/svg">
<g clip-path="url(#clip0_19671_56949)">
<path d="M64.7072 6.89095C64.5775 6.90966 64.6794 7.06859 64.7072 7.15277C64.735 7.24635 64.7535 7.34913 64.772 7.45202C64.7905 7.65779 64.772 7.86357 64.735 8.05993C64.6423 8.4995 64.4106 8.91095 64.1234 9.24763C64.0215 9.36924 63.9102 9.48143 63.7991 9.58432C63.6879 9.68721 63.5674 9.79009 63.4377 9.88357C63.308 9.97715 63.1875 10.0613 63.0578 10.1455C63.0207 10.1642 62.9929 10.1829 62.9559 10.2015C61.8995 10.8095 60.6393 11.09 59.4255 11.0432C58.5915 11.0058 58.2487 10.8376 58.2487 10.7347C58.2673 10.3793 63.0115 6.69448 63.1597 3.04719C63.2245 1.37315 62.3072 0.110616 60.6487 0.0451512C58.99 -0.020314 57.6372 1.01777 57.5537 3.07525C57.4703 5.02985 58.6564 6.58228 58.5731 8.55565C58.5267 9.6779 58.1004 10.3793 57.5908 10.3513C57.4611 10.3513 57.3314 10.2951 57.1738 10.2297C56.7291 9.71523 56.099 9.37854 55.3762 9.35052C53.977 9.29437 52.8003 10.3886 52.7446 11.7915C52.689 13.2036 53.7732 14.3914 55.1631 14.4474C56.5622 14.5036 57.7391 13.4093 57.7947 12.0066C57.7947 11.8102 57.7853 11.6231 57.7483 11.4361C57.841 11.221 57.9336 11.0807 58.0449 11.0807C58.7212 11.1087 59.9908 14.2978 62.7149 14.4194C64.4755 14.4943 66.4492 13.2784 66.5604 10.4822C66.6067 9.38795 66.3843 8.1441 65.5504 7.35854C65.4114 7.22763 65.2631 7.11533 65.0963 7.01255C64.9852 6.94699 64.8369 6.86282 64.6978 6.86282C64.6978 6.86282 64.6886 6.86282 64.6794 6.86282L64.7072 6.89095Z" fill="#805B87"/>
<path d="M20.6517 14.4495C22.0415 14.4495 23.1681 13.3134 23.1681 11.912C23.1681 10.5106 22.0415 9.37451 20.6517 9.37451C19.262 9.37451 18.1354 10.5106 18.1354 11.912C18.1354 13.3134 19.262 14.4495 20.6517 14.4495Z" fill="#805B87"/>
<path d="M0.0675049 32.7871C1.33694 32.7871 2.29138 32.1792 2.29138 29.9629V13.9894C2.29138 11.7729 1.33694 11.165 0.0675049 11.165V10.7441H8.10117V11.165C6.83173 11.165 5.87729 11.7729 5.87729 13.9894V30.5988C5.87729 32.0764 6.32211 32.6469 7.49885 32.6469H9.40773C13.1234 32.6469 15.3194 30.7203 16.4592 26.5586L16.8391 26.6522L15.4399 33.1893H0.0675049V32.7684V32.7871Z" fill="#805B87"/>
<path d="M16.7091 32.787C17.9785 32.787 18.933 32.179 18.933 29.9627V20.4421C18.933 18.871 18.2937 18.3566 16.8388 18.3286V17.9077C18.5253 17.7768 20.4248 17.4307 22.0834 16.6545L22.3707 16.8135V29.9627C22.3707 32.179 23.288 32.787 24.5945 32.787V33.2078H16.7183V32.787H16.7091Z" fill="#805B87"/>
<path d="M24.8816 32.7869C26.151 32.7869 27.1054 32.1791 27.1054 29.9627V18.2257H24.8816V17.7768C26.3085 17.6179 27.0776 17.1034 27.5224 15.1114C28.2173 12.1281 30.4412 9.36919 33.7214 9.34117C35.343 9.31315 36.9645 9.98641 37.4742 11.3238C37.8541 12.259 37.6039 13.4749 36.4271 13.7273C35.2503 13.9237 34.3608 13.0259 34.3608 11.5482C34.333 10.426 34.0086 9.8462 33.2488 9.8462C31.72 9.8462 30.5524 12.5115 30.5524 16.2244V16.9258H34.5832L34.0735 18.2069H30.5431V29.944C30.5431 32.1604 31.655 32.7683 33.2118 32.7683V33.1892H24.8908V32.7683L24.8816 32.7869Z" fill="#805B87"/>
<path d="M33.9994 25.1559C33.9994 20.2834 37.4649 16.6267 41.7181 16.6267C45.4987 16.6267 47.6947 19.4791 47.6947 22.7804H37.3723C37.3445 22.9769 37.3445 23.1358 37.3445 23.3229C37.3445 27.8773 39.5683 30.9542 43.0988 30.9262C45.7396 30.9262 47.4816 29.1306 47.9912 26.727L48.436 26.7925C47.8615 30.6082 45.1002 33.5261 41.3475 33.5261C36.8997 33.5261 34.0087 29.7103 34.0087 25.1559H33.9994ZM42.9505 22.238C43.9049 22.238 44.257 21.7891 44.257 20.7977C44.257 19.2921 43.4972 17.113 41.4586 17.113C39.42 17.113 37.7707 19.4511 37.3908 22.2473H42.9505V22.238Z" fill="#805B87"/>
<path d="M50.4192 18.1976C52.2909 18.0667 53.9495 17.8422 55.914 16.5984L56.2012 16.8229L55.5619 19.7127L53.9773 27.3721C53.4399 29.9345 52.9303 31.4403 53.6623 31.4776C54.3572 31.5712 55.5711 30.0001 56.4606 26.5118L56.7479 26.5772C55.5062 31.9641 53.2546 33.6941 51.4754 33.3388C49.6964 33.0208 49.7891 31.0007 50.4562 27.8865L51.8831 21.1249C52.3002 19.2357 51.8183 18.6559 50.4192 18.6278V18.2069V18.1976Z" fill="#805B87"/>
<path d="M59.8243 21.1156C60.2413 19.2546 59.7317 18.6467 58.3602 18.6467V18.2258C60.232 18.0949 61.8907 17.8424 63.855 16.5891L64.1052 16.8136L63.503 19.7034L61.8165 27.6247C64.0682 20.9192 67.2835 16.6265 70.5544 16.6265C72.908 16.6265 73.8903 18.5812 72.8061 22.4623L71.4069 27.5966C70.7119 30.0937 70.1004 31.5713 70.8324 31.6648C71.4995 31.7957 72.8339 30.2901 73.9458 26.8578L74.233 26.9514C72.6486 32.2446 70.3228 33.8439 68.5437 33.395C66.7925 32.946 67.0148 30.954 67.8765 27.8772L69.1831 23.2572C70.2672 19.5351 69.5352 18.5718 68.5437 18.5718C66.3199 18.5718 62.7894 24.3421 60.6305 33.1892H57.2668L59.8058 21.0969L59.8243 21.1156Z" fill="#805B87"/>
<path d="M72.8147 35.5084C72.8147 33.5818 75.3536 33.3948 77.5775 33.3293C75.4463 32.4969 74.7514 29.4481 75.4463 26.0814C76.586 20.6946 80.6261 16.6825 84.9811 16.6825C86.4081 16.6825 87.3995 17.1968 88.252 17.9636L90.6334 16.3645L90.9855 16.5889L87.3995 33.1983C86.4451 37.5565 83.202 39.9319 79.616 39.9319C75.1405 39.9319 72.8147 37.1449 72.8147 35.5084ZM79.5233 39.4175C81.9696 39.4175 83.3317 36.5277 84.0637 33.1983L85.7502 25.6979C84.1934 29.71 81.5248 33.4882 78.8284 33.5257C76.7991 33.5911 75.9651 34.1709 75.9095 35.3213C75.8447 37.0233 77.5311 39.4269 79.5326 39.4269L79.5233 39.4175ZM80.3481 31.5992C82.4793 31.5992 85.6853 26.2403 86.5749 21.4988C87.0196 19.0298 86.6027 17.2342 84.9903 17.2342C83.2761 17.2342 80.7928 19.3853 79.2361 24.2203C77.6794 29.2236 78.6986 31.5992 80.3481 31.5992Z" fill="#805B87"/>
</g>
<defs>
<clipPath id="clip0_19671_56949">
<rect width="91" height="40" fill="white"/>
</clipPath>
</defs>
</svg>
