<svg width="150" height="65" viewBox="0 0 150 65" fill="none" xmlns="http://www.w3.org/2000/svg">
<g clip-path="url(#clip0_19671_57221)">
<path d="M106.66 11.1978C106.446 11.2282 106.614 11.4864 106.66 11.6232C106.706 11.7753 106.737 11.9423 106.767 12.1095C106.798 12.4439 106.767 12.7783 106.706 13.0974C106.553 13.8117 106.171 14.4803 105.698 15.0274C105.53 15.225 105.347 15.4073 105.163 15.5745C104.98 15.7417 104.781 15.9089 104.568 16.0608C104.354 16.2128 104.155 16.3496 103.941 16.4864C103.88 16.5168 103.834 16.5472 103.773 16.5775C102.032 17.5653 99.9549 18.0212 97.954 17.9452C96.5794 17.8844 96.0143 17.611 96.0143 17.4438C96.0449 16.8663 103.865 10.8785 104.109 4.95166C104.216 2.23134 102.704 0.179721 99.9703 0.0733402C97.2362 -0.0330408 95.0063 1.65385 94.8687 4.99725C94.7313 8.17347 96.6864 10.6962 96.549 13.9029C96.4726 15.7266 95.7699 16.8663 94.9299 16.8208C94.7161 16.8208 94.5023 16.7295 94.2425 16.6232C93.5094 15.7872 92.4708 15.2401 91.2794 15.1946C88.9731 15.1033 87.0334 16.8814 86.9416 19.1611C86.85 21.4558 88.6371 23.386 90.9282 23.477C93.2344 23.5683 95.1743 21.7902 95.2659 19.5106C95.2659 19.1915 95.2505 18.8876 95.1895 18.5836C95.3423 18.2341 95.4949 18.0061 95.6783 18.0061C96.7932 18.0516 98.8858 23.2339 103.376 23.4315C106.278 23.5531 109.532 21.5774 109.715 17.0335C109.791 15.2554 109.425 13.2341 108.05 11.9576C107.821 11.7449 107.577 11.5624 107.302 11.3954C107.118 11.2888 106.874 11.1521 106.645 11.1521C106.645 11.1521 106.63 11.1521 106.614 11.1521L106.66 11.1978Z" fill="#3F6212"/>
<path d="M34.0413 23.4803C36.332 23.4803 38.1891 21.6342 38.1891 19.3568C38.1891 17.0795 36.332 15.2334 34.0413 15.2334C31.7505 15.2334 29.8934 17.0795 29.8934 19.3568C29.8934 21.6342 31.7505 23.4803 34.0413 23.4803Z" fill="#3F6212"/>
<path d="M0.111244 53.2788C2.20373 53.2788 3.77698 52.291 3.77698 48.6894V22.7325C3.77698 19.1307 2.20373 18.1429 0.111244 18.1429V17.459H13.3536V18.1429C11.2611 18.1429 9.68782 19.1307 9.68782 22.7325V49.7228C9.68782 52.124 10.421 53.051 12.3607 53.051H15.5072C21.6319 53.051 25.2518 49.9202 27.1305 43.1574L27.7567 43.3095L25.4504 53.9323H0.111244V53.2484V53.2788Z" fill="#3F6212"/>
<path d="M27.5425 53.2789C29.635 53.2789 31.2082 52.291 31.2082 48.6894V33.2186C31.2082 30.6655 30.1544 29.8295 27.7563 29.784V29.1001C30.5362 28.8874 33.6673 28.325 36.4012 27.0637L36.8748 27.322V48.6894C36.8748 52.291 38.3869 53.2789 40.5404 53.2789V53.9628H27.5577V53.2789H27.5425Z" fill="#3F6212"/>
<path d="M41.0136 53.2787C43.1061 53.2787 44.6792 52.291 44.6792 48.6893V29.6166H41.0136V28.8872C43.3657 28.629 44.6334 27.793 45.3666 24.556C46.5121 19.7081 50.1778 15.2249 55.5848 15.1793C58.2577 15.1338 60.9306 16.2279 61.7706 18.4012C62.3969 19.9209 61.9844 21.8966 60.0448 22.3068C58.1049 22.626 56.6386 21.167 56.6386 18.7658C56.5928 16.9422 56.0582 16 54.8058 16C52.2857 16 50.3612 20.3312 50.3612 26.3646V27.5043H57.0053L56.1652 29.5862H50.3458V48.6589C50.3458 52.2606 52.1787 53.2485 54.7448 53.2485V53.9324H41.0289V53.2485L41.0136 53.2787Z" fill="#3F6212"/>
<path d="M56.043 40.8783C56.043 32.9604 61.7554 27.0183 68.7661 27.0183C74.9979 27.0183 78.6176 31.6535 78.6176 37.0181H61.6028C61.557 37.3373 61.557 37.5956 61.557 37.8996C61.557 45.3005 65.2225 50.3005 71.0419 50.2549C75.3949 50.2549 78.2664 47.3371 79.1065 43.4313L79.8397 43.5377C78.8926 49.7382 74.3411 54.4798 68.1552 54.4798C60.8238 54.4798 56.0584 48.2792 56.0584 40.8783H56.043ZM70.7975 36.1367C72.3708 36.1367 72.9512 35.4071 72.9512 33.7962C72.9512 31.3495 71.6988 27.8086 68.3385 27.8086C64.9781 27.8086 62.2594 31.6079 61.6332 36.1519H70.7975V36.1367Z" fill="#3F6212"/>
<path d="M83.1086 29.571C86.1939 29.3582 88.9278 28.9934 92.1659 26.9722L92.6393 27.337L91.5855 32.033L88.9736 44.4794C88.0878 48.6434 87.2477 51.0903 88.4544 51.151C89.5998 51.303 91.6007 48.7499 93.067 43.0814L93.5406 43.1878C91.4937 51.9414 87.7823 54.7527 84.8497 54.1754C81.9171 53.6587 82.0699 50.376 83.1696 45.3154L85.5217 34.3278C86.2091 31.2578 85.4149 30.3157 83.1086 30.27V29.5861V29.571Z" fill="#3F6212"/>
<path d="M98.6115 34.3129C99.2989 31.2886 98.4589 30.3008 96.1982 30.3008V29.6169C99.2836 29.4042 102.018 28.9938 105.256 26.9573L105.668 27.3221L104.675 32.0181L101.895 44.8901C105.607 33.9936 110.907 27.0181 116.299 27.0181C120.178 27.0181 121.797 30.1944 120.01 36.5012L117.704 44.8444C116.558 48.9023 115.55 51.3033 116.757 51.4553C117.856 51.6681 120.056 49.2213 121.889 43.6439L122.362 43.7959C119.751 52.3975 115.917 54.9963 112.984 54.2668C110.098 53.5372 110.464 50.3003 111.884 45.3005L114.038 37.793C115.825 31.7445 114.619 30.1791 112.984 30.1791C109.319 30.1791 103.499 39.5558 99.9404 53.9324H94.396L98.5811 34.2825L98.6115 34.3129Z" fill="#3F6212"/>
<path d="M120.024 57.7013C120.024 54.5707 124.209 54.2667 127.875 54.1604C124.362 52.8077 123.217 47.8534 124.362 42.3825C126.241 33.6289 132.9 27.1092 140.079 27.1092C142.431 27.1092 144.065 27.945 145.47 29.1911L149.396 26.5925L149.976 26.9572L144.065 53.9474C142.492 61.0295 137.146 64.8895 131.235 64.8895C123.858 64.8895 120.024 60.3607 120.024 57.7013ZM131.083 64.0537C135.115 64.0537 137.36 59.3577 138.567 53.9474L141.346 41.7593C138.78 48.2789 134.382 54.4186 129.937 54.4794C126.592 54.5858 125.217 55.528 125.126 57.3973C125.019 60.1631 127.799 64.0689 131.098 64.0689L131.083 64.0537ZM132.442 51.3488C135.955 51.3488 141.24 42.6408 142.706 34.9358C143.439 30.9237 142.752 28.0058 140.094 28.0058C137.268 28.0058 133.175 31.5012 130.609 39.3583C128.043 47.4886 129.723 51.3488 132.442 51.3488Z" fill="#3F6212"/>
</g>
<defs>
<clipPath id="clip0_19671_57221">
<rect width="150" height="65" fill="white"/>
</clipPath>
</defs>
</svg>
