<svg width="91" height="40" viewBox="0 0 91 40" fill="none" xmlns="http://www.w3.org/2000/svg">
<g clip-path="url(#clip0_20965_9910)">
<path d="M64.7071 6.8907C64.5774 6.90942 64.6794 7.06835 64.7071 7.15252C64.7349 7.2461 64.7535 7.34889 64.7719 7.45177C64.7905 7.65755 64.7719 7.86332 64.7349 8.05969C64.6422 8.49926 64.4106 8.9107 64.1234 9.24739C64.0215 9.36899 63.9102 9.48119 63.799 9.58407C63.6879 9.68696 63.5674 9.78985 63.4377 9.88332C63.308 9.97691 63.1875 10.0611 63.0578 10.1452C63.0207 10.164 62.9929 10.1827 62.9559 10.2013C61.8995 10.8092 60.6393 11.0897 59.4254 11.043C58.5915 11.0056 58.2487 10.8373 58.2487 10.7344C58.2672 10.379 63.0114 6.69423 63.1597 3.04695C63.2245 1.37291 62.3072 0.110372 60.6486 0.0449071C58.9899 -0.0205582 57.6371 1.01753 57.5537 3.075C57.4703 5.0296 58.6564 6.58204 58.573 8.55541C58.5267 9.67766 58.1004 10.379 57.5908 10.351C57.4611 10.351 57.3314 10.2949 57.1738 10.2294C56.7291 9.71498 56.0989 9.3783 55.3761 9.35028C53.977 9.29413 52.8002 10.3884 52.7446 11.7912C52.689 13.2033 53.7731 14.3911 55.1631 14.4472C56.5622 14.5033 57.7391 13.4091 57.7946 12.0063C57.7946 11.81 57.7853 11.6229 57.7483 11.4358C57.841 11.2208 57.9336 11.0804 58.0448 11.0804C58.7212 11.1085 59.9907 14.2975 62.7149 14.4192C64.4755 14.494 66.4492 13.2782 66.5603 10.4819C66.6067 9.38771 66.3843 8.14386 65.5503 7.3583C65.4114 7.22739 65.2631 7.11509 65.0963 7.01231C64.9851 6.94675 64.8369 6.86258 64.6978 6.86258C64.6978 6.86258 64.6886 6.86258 64.6794 6.86258L64.7071 6.8907Z" fill="white"/>
<path d="M20.6517 14.4495C22.0415 14.4495 23.1681 13.3134 23.1681 11.912C23.1681 10.5106 22.0415 9.37451 20.6517 9.37451C19.262 9.37451 18.1353 10.5106 18.1353 11.912C18.1353 13.3134 19.262 14.4495 20.6517 14.4495Z" fill="white"/>
<path d="M0.0674744 32.7871C1.33691 32.7871 2.29135 32.1792 2.29135 29.9629V13.9894C2.29135 11.7729 1.33691 11.165 0.0674744 11.165V10.7441H8.10114V11.165C6.8317 11.165 5.87726 11.7729 5.87726 13.9894V30.5988C5.87726 32.0764 6.32208 32.6469 7.49882 32.6469H9.4077C13.1233 32.6469 15.3194 30.7203 16.4591 26.5586L16.8391 26.6522L15.4399 33.1893H0.0674744V32.7684V32.7871Z" fill="white"/>
<path d="M16.7091 32.7872C17.9785 32.7872 18.933 32.1793 18.933 29.9629V20.4424C18.933 18.8713 18.2937 18.3568 16.8388 18.3288V17.9079C18.5253 17.777 20.4248 17.4309 22.0834 16.6548L22.3707 16.8137V29.9629C22.3707 32.1793 23.288 32.7872 24.5945 32.7872V33.208H16.7183V32.7872H16.7091Z" fill="white"/>
<path d="M24.8816 32.7869C26.151 32.7869 27.1054 32.1791 27.1054 29.9627V18.2257H24.8816V17.7768C26.3085 17.6179 27.0776 17.1034 27.5224 15.1114C28.2173 12.1281 30.4412 9.36919 33.7214 9.34117C35.343 9.31315 36.9645 9.98641 37.4742 11.3238C37.8541 12.259 37.6039 13.4749 36.4271 13.7273C35.2503 13.9237 34.3608 13.0259 34.3608 11.5482C34.333 10.426 34.0086 9.8462 33.2488 9.8462C31.72 9.8462 30.5524 12.5115 30.5524 16.2244V16.9258H34.5832L34.0735 18.2069H30.5431V29.944C30.5431 32.1604 31.655 32.7683 33.2118 32.7683V33.1892H24.8908V32.7683L24.8816 32.7869Z" fill="white"/>
<path d="M33.9994 25.1557C33.9994 20.2831 37.465 16.6265 41.7181 16.6265C45.4987 16.6265 47.6947 19.4789 47.6947 22.7802H37.3724C37.3446 22.9766 37.3446 23.1356 37.3446 23.3226C37.3446 27.8771 39.5683 30.954 43.0988 30.9259C45.7396 30.9259 47.4816 29.1303 47.9913 26.7268L48.4361 26.7922C47.8615 30.608 45.1003 33.5258 41.3475 33.5258C36.8998 33.5258 34.0088 29.7101 34.0088 25.1557H33.9994ZM42.9505 22.2378C43.9049 22.2378 44.2571 21.7888 44.2571 20.7975C44.2571 19.2918 43.4973 17.1128 41.4587 17.1128C39.4201 17.1128 37.7707 19.4508 37.3908 22.2471H42.9505V22.2378Z" fill="white"/>
<path d="M50.4192 18.1974C52.2909 18.0665 53.9495 17.842 55.914 16.5981L56.2012 16.8226L55.5619 19.7125L53.9773 27.3718C53.4399 29.9343 52.9303 31.4401 53.6623 31.4774C54.3572 31.571 55.5711 29.9999 56.4606 26.5115L56.7479 26.577C55.5062 31.9638 53.2546 33.6939 51.4754 33.3386C49.6964 33.0206 49.7891 31.0005 50.4562 27.8863L51.8831 21.1247C52.3002 19.2355 51.8183 18.6557 50.4192 18.6276V18.2067V18.1974Z" fill="white"/>
<path d="M59.8243 21.1154C60.2414 19.2543 59.7318 18.6464 58.3603 18.6464V18.2256C60.232 18.0946 61.8907 17.8421 63.8551 16.5889L64.1053 16.8134L63.5031 19.7032L61.8166 27.6245C64.0683 20.9189 67.2836 16.6263 70.5545 16.6263C72.9081 16.6263 73.8903 18.581 72.8062 22.462L71.407 27.5964C70.712 30.0935 70.1005 31.571 70.8325 31.6646C71.4996 31.7955 72.8339 30.2898 73.9459 26.8575L74.2331 26.9511C72.6487 32.2444 70.3229 33.8436 68.5438 33.3948C66.7925 32.9458 67.0148 30.9538 67.8766 27.877L69.1831 23.257C70.2673 19.5349 69.5353 18.5715 68.5438 18.5715C66.3199 18.5715 62.7895 24.3418 60.6305 33.189H57.2669L59.8059 21.0967L59.8243 21.1154Z" fill="white"/>
<path d="M72.8148 35.5086C72.8148 33.5821 75.3536 33.395 77.5775 33.3296C75.4463 32.4972 74.7514 29.4484 75.4463 26.0816C76.5861 20.6948 80.6261 16.6827 84.9812 16.6827C86.4081 16.6827 87.3996 17.197 88.2521 17.9639L90.6335 16.3647L90.9856 16.5891L87.3996 33.1985C86.4451 37.5567 83.202 39.9321 79.6161 39.9321C75.1406 39.9321 72.8148 37.1452 72.8148 35.5086ZM79.5234 39.4178C81.9697 39.4178 83.3317 36.528 84.0638 33.1985L85.7502 25.6981C84.1935 29.7102 81.5249 33.4885 78.8285 33.5259C76.7991 33.5914 75.9652 34.1712 75.9096 35.3215C75.8448 37.0236 77.5312 39.4271 79.5326 39.4271L79.5234 39.4178ZM80.3481 31.5994C82.4793 31.5994 85.6853 26.2406 86.575 21.4991C87.0197 19.0301 86.6027 17.2345 84.9904 17.2345C83.2762 17.2345 80.7928 19.3855 79.2362 24.2206C77.6794 29.2239 78.6987 31.5994 80.3481 31.5994Z" fill="white"/>
</g>
<defs>
<clipPath id="clip0_20965_9910">
<rect width="91" height="40" fill="white"/>
</clipPath>
</defs>
</svg>
