<svg width="432" height="468" viewBox="0 0 432 468" fill="none" xmlns="http://www.w3.org/2000/svg">
<path d="M373.905 222.805C369.851 223.412 373.037 228.564 373.905 231.292C374.773 234.325 375.353 237.657 375.93 240.992C376.51 247.662 375.93 254.332 374.773 260.697C371.876 274.945 364.638 288.282 355.662 299.195C352.477 303.137 349 306.774 345.526 310.109C342.053 313.444 338.288 316.779 334.234 319.809C330.18 322.842 326.415 325.571 322.361 328.299C321.201 328.906 320.333 329.512 319.176 330.116C286.164 349.821 246.781 358.914 208.847 357.399C182.785 356.186 172.073 350.732 172.073 347.397C172.653 335.877 320.913 216.437 325.547 98.213C327.572 43.9502 298.905 3.02606 247.073 0.904053C195.238 -1.21795 152.961 32.4308 150.353 99.1223C147.747 162.479 184.813 212.8 182.208 276.766C180.76 313.142 167.439 335.877 151.513 334.969C147.459 334.969 143.406 333.149 138.48 331.027C124.583 314.352 104.891 303.439 82.3028 302.531C38.5781 300.71 1.80401 336.179 0.0639005 381.652C-1.67289 427.424 32.2077 465.926 75.6441 467.743C119.369 469.563 156.146 434.094 157.883 388.624C157.883 382.259 157.592 376.196 156.435 370.132C159.332 363.161 162.225 358.612 165.702 358.612C186.839 359.521 226.513 462.893 311.646 466.834C366.666 469.261 428.345 429.851 431.819 339.212C433.267 303.744 426.317 263.425 400.255 237.962C395.913 233.719 391.28 230.079 386.066 226.747C382.592 224.622 377.959 221.894 373.613 221.894C373.613 221.894 373.325 221.894 373.037 221.894L373.905 222.805Z" fill="#ADC178"/>
</svg>
