<svg width="120" height="121" viewBox="0 0 120 121" fill="none" xmlns="http://www.w3.org/2000/svg">
<g clip-path="url(#clip0_20789_20091)">
<path d="M60.2561 13.2107C60.1157 13.1493 59.9477 13.0882 59.9383 12.9251C59.9077 12.3951 59.9255 11.8536 59.9301 11.3213L59.9636 7.85442L59.9845 3.66148C59.984 2.88257 59.9745 2.08661 59.9962 1.30812C60.0047 1.00816 60.025 0.998349 60.1784 0.782471L60.4241 0.91139C60.516 1.11346 60.4824 2.08114 60.4819 2.34626L60.4738 5.27006L60.4527 10.2443C60.4489 10.7635 60.5192 12.9154 60.2561 13.2107Z" fill="#42104C"/>
<path d="M75.9945 17.0162C75.786 16.9654 75.7782 16.9814 75.6211 16.8427C75.5707 16.5817 77.0958 14.133 77.3413 13.7092L81.459 6.67603C81.629 6.68967 81.6242 6.69355 81.7907 6.73586L81.8587 6.85538C81.7864 7.1857 76.4456 16.331 75.9945 17.0162Z" fill="#42104C"/>
<path d="M44.4286 16.9947C44.3297 17.0183 44.2074 17.0362 44.1056 17.0543C43.9186 16.9169 43.387 15.9016 43.2216 15.6251L40.467 10.953C40.0452 10.2349 38.285 7.36033 38.2338 6.7373C38.3183 6.7501 38.5807 6.76698 38.6185 6.83006C40.5117 9.99759 42.3581 13.211 44.2566 16.3815C44.3887 16.6022 44.4224 16.7469 44.4286 16.9947Z" fill="#42104C"/>
<path d="M70.1317 10.2975C69.547 9.82668 69.8208 9.48554 70.2132 8.95825C70.4984 9.08975 70.4046 8.98945 70.5375 9.23447C70.5611 9.67425 70.3602 9.92886 70.1317 10.2975Z" fill="#42104C"/>
<path d="M51.6495 11.5998C51.5582 11.6069 51.5084 11.5969 51.4169 11.5885C51.0965 11.3008 51.0331 10.5398 51.094 10.1316L51.3627 10.1731C51.6774 10.454 51.8173 11.2077 51.6495 11.5998Z" fill="#42104C"/>
<path d="M65.3074 25.3295C65.0669 25.2377 65.0796 25.2831 64.9353 25.1113C64.9639 24.6315 66.0238 21.395 66.253 20.6686L68.0307 15.1258C68.3826 14.0225 68.8785 12.344 69.3175 11.3301C69.4383 11.3867 69.5534 11.4447 69.6724 11.5045C69.7541 11.7343 69.2276 13.1183 69.113 13.4705L66.634 21.1265C66.2311 22.4015 65.7757 24.1219 65.3074 25.3295Z" fill="#42104C"/>
<path d="M54.9794 25.4092C54.4615 25.3929 54.5503 25.2118 54.4196 24.6431C53.7767 21.8491 53.0919 19.0162 52.4074 16.2379C52.2139 15.4525 51.5709 13.2077 51.6024 12.6128C51.8256 12.6293 51.8177 12.6214 52.02 12.7114C52.1778 13.0273 52.8301 15.8661 52.9599 16.4034L54.2646 21.8719C54.406 22.4692 55.063 24.9512 54.9794 25.4092Z" fill="#42104C"/>
<path d="M60.2525 24.5881C60.0997 24.5867 60.0824 24.5782 59.9303 24.5517C59.7264 24.1974 59.8292 15.5316 59.9722 14.4927C60.1691 14.5171 60.2234 14.5001 60.3665 14.6328C60.4792 15.4382 60.4097 23.8139 60.2525 24.5881Z" fill="#42104C"/>
<path d="M69.9405 27.1684C69.708 27.0796 69.6696 27.0757 69.6107 26.8644C69.7526 26.5077 71.368 23.7621 71.6793 23.2813C72.6076 21.8481 73.8301 19.4534 74.7875 18.165C75.051 18.2475 75.0115 18.1898 75.1357 18.3723C74.9564 18.9964 72.611 22.6402 72.1065 23.529C71.7371 24.18 70.3615 26.5868 69.9405 27.1684Z" fill="#42104C"/>
<path d="M50.5964 27.2916C50.3665 27.2985 50.4697 27.3256 50.2741 27.2145L46.9903 21.8077C46.3751 20.8046 45.7237 19.8018 45.1275 18.7864C45.0197 18.6027 45.0208 18.4939 45.041 18.2903C45.5865 18.3564 45.6826 18.7615 45.9686 19.2222L48.9862 24.1464C49.5163 25.0054 50.1324 25.9542 50.5925 26.8542C50.6909 27.0466 50.6428 27.091 50.5964 27.2916Z" fill="#42104C"/>
<path d="M34.9978 19.4181C34.483 19.0846 34.153 19.0077 34.2992 18.3435C34.8704 18.5009 35.188 18.7989 34.9978 19.4181Z" fill="#42104C"/>
<path d="M84.9002 20.0276C84.7371 20.0249 84.6833 19.9628 84.6155 19.8369C84.6643 19.4669 85.1109 19.1476 85.3938 18.9124C85.5856 18.964 85.5744 18.9551 85.705 19.1047C85.6593 19.499 85.2253 19.7615 84.9002 20.0276Z" fill="#42104C"/>
<path d="M46.6502 30.4426C46.4923 30.4198 46.3969 30.4029 46.2745 30.2907C45.3175 29.4142 44.3557 28.4873 43.4175 27.5933L37.5673 21.9937C37.2538 21.6913 36.4329 20.9249 36.1382 20.5234C36.1363 20.4317 36.1344 20.34 36.1326 20.2483C36.3005 20.2682 36.4345 20.2668 36.5655 20.3846C38.0174 21.6944 39.3965 23.0769 40.8159 24.4229C42.7495 26.2563 44.7138 28.0656 46.5792 29.9696C46.7071 30.1003 46.6649 30.2855 46.6502 30.4426Z" fill="#42104C"/>
<path d="M74.0979 30.1655C73.8805 30.1515 73.838 30.1507 73.7711 29.9537C73.8543 29.7338 73.9958 29.5657 74.1702 29.4092C76.748 27.0963 79.196 24.649 81.7382 22.298C82.3586 21.7244 82.9402 21.0599 83.5891 20.5273C83.8771 20.6041 83.7787 20.5246 83.937 20.7146C83.919 20.8338 83.8779 20.9088 83.7897 20.9914C80.5645 24.008 77.4137 27.2633 74.0979 30.1655Z" fill="#42104C"/>
<path d="M87.9272 28.5466C87.6711 28.519 87.7572 28.5777 87.6049 28.4375L87.6317 28.284C87.7857 28.1104 87.9708 27.9685 88.1778 27.8621C90.9352 26.4478 93.6774 25.0051 96.4087 23.5404C96.7924 23.3346 97.1757 23.1204 97.5903 22.9863C97.8652 23.0839 97.7757 22.9993 97.9204 23.1915L97.8765 23.3248C97.6061 23.5607 94.8825 24.9584 94.404 25.2102L90.3622 27.3379C89.6207 27.7246 88.6772 28.2431 87.9272 28.5466Z" fill="#42104C"/>
<path d="M33.1861 29.2064C30.9712 28.1289 28.6083 26.6953 26.367 25.5716C25.7439 25.2592 22.8544 23.7523 22.4772 23.457C22.3675 23.2253 22.3938 23.3166 22.4539 23.0188C22.9761 23.0889 32.2928 28.0697 33.1504 28.6387C33.2639 28.8874 33.2138 28.888 33.1861 29.2064Z" fill="#42104C"/>
<path d="M77.0244 34.22C76.9763 34.2184 76.869 34.1906 76.8169 34.1792C76.693 33.9922 76.7096 34.0895 76.7512 33.8806C76.9474 33.6414 85.5407 29.2357 86.4559 28.7988C86.5901 28.8506 86.5769 28.8532 86.6987 28.9363L86.6945 29.0754C86.2769 29.6027 78.1998 33.6205 77.0244 34.22Z" fill="#42104C"/>
<path d="M43.8722 34.647C43.2328 34.5224 35.1349 30.2953 34.0741 29.6465C33.9579 29.4362 34.0032 29.465 34.0331 29.1707C34.6431 29.3111 37.6494 30.9282 38.3275 31.3052C39.903 32.1813 42.3344 33.2358 43.8065 34.1875C43.931 34.4069 43.8899 34.3482 43.8722 34.647Z" fill="#42104C"/>
<path d="M52.7182 33.0171C58.0329 29.3107 65.2253 29.97 69.7858 34.5818C74.3463 39.1936 74.9622 46.4299 71.247 51.7538C67.532 57.0777 60.5555 58.9565 54.692 56.2121C50.3582 54.1837 47.4341 49.979 47.0265 45.1894C46.6189 40.3996 48.7901 35.7565 52.7182 33.0171ZM61.2439 31.1452C58.5117 30.7268 54.9608 31.7327 52.7549 33.4534C43.5382 40.6426 47.3115 54.8976 58.6598 56.9338C59.386 57.0642 60.6643 57.1184 61.3853 57.0053C65.8363 56.7626 69.9766 53.8634 71.8556 49.8131C75.6557 41.6225 70.3109 31.9037 61.2439 31.1452Z" fill="#42104C"/>
<path d="M61.2444 31.1453L60.8599 31.1936C60.9655 31.3717 62.7491 31.6975 63.1301 31.8563C74.4354 36.5705 74.1001 52.7625 62.2929 56.5902C61.9462 56.7026 61.5119 56.7667 61.1869 56.917L61.1764 56.9625L61.3857 57.0053C60.6648 57.1184 59.3865 57.0643 58.6603 56.9339C47.312 54.8976 43.5387 40.6426 52.7554 33.4534C54.9612 31.7328 58.5122 30.727 61.2444 31.1453Z" fill="#F0915A"/>
<path d="M61.3856 57.0053L61.1762 56.9624L61.1867 56.9169C61.5117 56.7666 61.9461 56.7026 62.2928 56.5901C74.0999 52.7624 74.4352 36.5704 63.1299 31.8562C62.749 31.6974 60.9654 31.3716 60.8597 31.1935L61.2442 31.1453C70.3113 31.9038 75.656 41.6226 71.8559 49.8132C69.9769 53.8635 65.8366 56.7626 61.3856 57.0053Z" fill="#FEFEFE"/>
<path d="M54.6922 56.2121C53.7867 56.029 52.6936 55.3855 51.9121 54.911C45.7655 51.1797 44.2473 43.1994 48.0251 37.2071C48.6709 36.1826 51.5641 33.2543 52.7184 33.0171C48.7903 35.7565 46.6191 40.3997 47.0267 45.1894C47.4343 49.979 50.3583 54.1837 54.6922 56.2121Z" fill="#FE8857"/>
<path d="M28.0143 36.0971C27.6458 36.049 27.0392 36.0424 26.8164 35.7275C26.8047 35.5305 26.8159 35.5424 26.9227 35.3718C27.3123 35.4253 27.6723 35.4464 27.9842 35.6803C28.105 35.9299 28.0828 35.7972 28.0143 36.0971Z" fill="#42104C"/>
<path d="M92.8738 36.4215L92.6075 36.3926L92.5217 36.2849L92.5643 36.1246C93.0087 35.8019 93.1022 35.8122 93.6259 35.699L93.7958 35.7056C93.9647 35.8188 93.8929 35.7467 93.9732 35.9644L93.9069 36.1063C93.624 36.3009 93.2221 36.3479 92.8738 36.4215Z" fill="#42104C"/>
<path d="M42.0121 39.6584C41.3258 39.591 37.8723 38.6965 37.0664 38.4699C34.7035 37.8052 31.8438 37.2687 29.5458 36.5584C29.4071 36.3658 29.4543 36.3737 29.4415 36.0857C30.1011 36.0985 41.5248 39.0081 41.9948 39.2797C42.0892 39.4881 42.054 39.3819 42.0121 39.6584Z" fill="#42104C"/>
<path d="M79.1661 39.5286C78.9946 39.5419 79.0536 39.5456 78.8891 39.5052C78.7315 39.2968 78.7597 39.4069 78.7611 39.1774C78.986 38.929 89.468 36.6667 90.9985 36.309C91.2596 36.2698 91.2842 36.2936 91.4276 36.4825L91.3976 36.6202C91.0273 36.9199 87.9993 37.5033 87.3307 37.6582L79.1661 39.5286Z" fill="#42104C"/>
<path d="M89.6082 45.0104C86.3486 45.0485 83.0669 44.9881 79.8059 44.9915C79.6679 44.9916 79.5845 44.9731 79.4815 44.8815C79.4587 44.6309 79.4454 44.7551 79.5592 44.5015C80.5215 44.4282 89.2736 44.45 89.5792 44.5867C89.6771 44.8335 89.647 44.703 89.6082 45.0104Z" fill="#42104C"/>
<path d="M29.4603 45.1322C28.3507 45.1538 17.477 45.2489 17.2012 45.0454C17.1273 44.8562 17.1713 44.7645 17.2169 44.5647C21.2078 44.5077 25.2211 44.628 29.2151 44.5869C29.3316 44.5857 29.3857 44.6193 29.4768 44.6822C29.5473 44.9136 29.5184 44.8615 29.4603 45.1322Z" fill="#42104C"/>
<path d="M41.0713 45.1232C39.6409 45.1576 32.2811 45.2797 31.4865 44.9982C31.3435 44.8537 31.3774 44.9378 31.3724 44.7419C31.5679 44.5438 31.474 44.6011 31.8082 44.5748C33.0456 44.5696 40.7922 44.4214 41.3686 44.6861C41.4939 44.7437 41.4716 44.7561 41.5183 44.8734C41.4124 45.0511 41.2517 45.0752 41.0713 45.1232Z" fill="#42104C"/>
<path d="M103.237 45.1216C100.768 45.1965 97.948 45.0007 95.4413 45.0472C94.8816 45.0576 91.7024 45.0614 91.3273 44.9979C91.207 44.8133 91.2525 44.8214 91.2616 44.5479C93.7921 44.441 96.6359 44.5912 99.1933 44.5435C99.8532 44.5312 102.769 44.5406 103.188 44.647C103.289 44.8534 103.248 44.8564 103.237 45.1216Z" fill="#42104C"/>
<path d="M30.5844 53.5359C30.353 53.5845 30.263 53.6076 30.105 53.4503L30.1288 53.299C30.5097 52.8891 33.3987 52.2395 34.1287 52.0352L41.5449 49.9545L41.8224 49.9414C42.0602 50.0914 41.9988 49.9924 42.076 50.2045C41.9796 50.3194 41.9057 50.3552 41.7616 50.3952C38.0379 51.4294 34.3141 52.5296 30.5844 53.5359Z" fill="#42104C"/>
<path d="M90.9237 54.3864C90.045 54.2233 88.8532 53.7845 87.9804 53.4999L83.6408 52.1086C83.0088 51.9075 79.0214 50.6952 78.6396 50.4829C78.5469 50.2595 78.5763 50.3288 78.6434 50.0425C79.1779 50.1349 80.0135 50.4211 80.5612 50.593L83.9587 51.6842C86.0304 52.3587 88.8795 53.1914 90.859 53.94C90.9972 54.13 90.951 54.0782 90.9237 54.3864Z" fill="#42104C"/>
<path d="M27.6062 54.3808L27.3109 54.4068C27.134 54.2923 27.1968 54.3691 27.1235 54.1627L27.1858 54.0395C27.4935 53.8099 27.9301 53.7116 28.3074 53.5945C28.4767 53.5966 28.531 53.631 28.6952 53.6833L28.7397 53.8043C28.5446 54.1566 27.9869 54.2699 27.6062 54.3808Z" fill="#42104C"/>
<path d="M93.4133 55.2837C93.0734 55.2041 92.091 54.9286 91.9038 54.6391C91.8523 54.5597 91.9145 54.4156 91.9417 54.2998C92.2818 54.3352 93.1381 54.5444 93.3851 54.8147C93.5208 54.9632 93.4506 55.0828 93.4133 55.2837Z" fill="#42104C"/>
<path d="M23.7518 66.62C23.4169 66.8277 23.0806 67.1014 22.6937 66.8801L22.678 66.747C23.1275 66.1645 41.9687 55.9516 43.8259 54.9335C44.0767 54.9214 44.1052 54.9512 44.2229 55.1412C44.1717 55.3091 44.1448 55.3476 43.9789 55.4378C40.4823 57.3404 36.9896 59.2831 33.4987 61.1913C33.6298 61.5136 33.8436 61.8173 33.6157 62.1103L33.4487 62.0908C33.1936 61.9316 33.1122 61.7545 32.9485 61.5011C29.9004 63.1141 26.7889 64.9366 23.7518 66.62Z" fill="#42104C"/>
<path d="M84.7339 59.8482C83.946 59.6151 76.5908 55.7077 76.4498 55.4755C76.4005 55.3943 76.4732 55.202 76.493 55.1089C77.1763 55.2369 83.8217 58.8444 84.7254 59.3979C84.824 59.6073 84.7848 59.5665 84.7339 59.8482Z" fill="#42104C"/>
<path d="M86.8306 60.9722C86.2863 60.9314 85.7661 60.729 85.8071 60.1118C86.0818 60.1271 86.5822 60.2995 86.7609 60.5169C86.9126 60.7014 86.8598 60.7368 86.8306 60.9722Z" fill="#42104C"/>
<path d="M97.8942 67.0612C97.1046 66.9874 92.851 64.4515 91.8729 63.9513C90.9072 63.4576 88.7071 62.2497 87.8398 61.649C87.7269 61.4063 87.7471 61.5108 87.8285 61.2034C88.4094 61.3736 91.2303 63.0126 91.9741 63.4131C93.8258 64.4366 95.7021 65.4205 97.5458 66.4586C97.8964 66.6559 97.9789 66.6903 97.8942 67.0612Z" fill="#42104C"/>
<path d="M77.9921 67.0752C77.3907 66.7329 73.5994 63.209 72.9476 62.3916C72.9077 62.3416 73.0387 62.1694 73.0911 62.0825C73.8615 62.3621 77.2264 65.9451 78.0767 66.6268C78.1771 66.7071 78.0344 66.9689 77.9921 67.0752Z" fill="#42104C"/>
<path d="M41.0411 67.3882C40.9269 67.3023 40.8659 67.25 40.7592 67.1567L40.7594 67.0097C41.2656 66.4188 43.0054 65.0075 43.6578 64.4321C44.2511 63.9089 45.7222 62.5836 46.2749 62.2148C46.4998 62.3501 46.4986 62.3647 46.4873 62.5921C46.3222 62.8393 44.634 64.2765 44.3174 64.5397C43.2153 65.4561 42.1326 66.4708 41.0411 67.3882Z" fill="#42104C"/>
<path d="M9.89307 99.0265C11.3243 97.5138 13.0209 95.7122 14.5737 94.3408C24.5169 85.56 36.5524 79.4322 49.3181 76.0403C54.1665 74.6922 59.0295 74.0662 63.9499 73.2578C82.4838 70.2126 103.177 73.4197 114.802 89.7434C115.776 91.112 117.788 93.9455 118.221 95.5964C117.773 95.8353 116.061 96.8262 115.764 96.9431C112.846 96.687 106.086 101.496 103.807 103.505C101.5 105.54 98.2355 108.622 96.4991 111.181C95.7842 103.412 93.5853 97.7784 88.8844 91.5105C76.7175 75.2881 54.0223 72.1669 37.9972 84.5874C29.5 91.1734 24.7792 100.262 23.4868 110.975C22.6491 109.706 21.6995 108.781 20.6711 107.69C17.3922 104.21 14.0101 101.424 9.89307 99.0265Z" fill="#F0915A"/>
<path d="M23.4868 110.975C24.7793 100.262 29.5 91.1733 37.9973 84.5874C54.0223 72.1669 76.7175 75.2881 88.8844 91.5105C93.5854 97.7783 95.7842 103.412 96.4991 111.181C96.3849 111.439 96.3361 111.451 96.0968 111.623C95.8271 109.902 95.7744 108.333 95.3928 106.57C93.2305 96.5798 86.8828 87.8582 78.2498 82.5175C65.5579 74.6659 48.7004 76.2002 37.3461 85.7706C29.6454 92.2104 24.8291 101.369 23.9725 111.433C23.9297 111.517 23.962 111.466 23.8523 111.569L23.7077 111.507C23.5146 111.264 23.5156 111.281 23.4868 110.975Z" fill="#42104C"/>
<path d="M91.788 114.652C91.3763 97.3809 77.0463 81.6762 59.3888 82.34C50.9096 82.6588 43.4286 85.8904 37.5142 92.108C32.5133 97.3653 29.4685 104.117 28.6127 111.337C28.5206 112.113 28.4725 112.886 28.3793 113.658C28.3544 113.877 28.2298 113.941 28.0547 113.981L27.9475 113.942C27.8619 113.561 28.0238 112.033 28.0744 111.582C29.6553 97.4959 39.317 85.7976 53.1937 82.5923C71.0274 78.4728 87.5764 90.7382 91.44 108.217C91.9332 110.448 92.4055 113.752 92.2938 116.03L92.2644 116.464C92.0973 116.698 92.2011 116.632 91.9789 116.726C91.7507 116.489 91.8466 115.096 91.788 114.652Z" fill="#42104C"/>
<path d="M65.3223 87.7797C62.0245 87.0912 59.3253 87.0733 56.0131 87.569C43.489 89.4435 34.1155 100.3 33.2198 112.858C33.2026 113.099 33.1896 113.185 33.0152 113.339L32.8383 113.307C32.7365 113.192 32.646 113.118 32.6622 112.939C33.9541 98.5637 44.4689 87.6174 58.9872 86.7324C74.9957 86.1044 87.2619 99.8382 87.3495 115.474C87.3537 116.22 87.4226 117.474 87.2706 118.151L87.1141 118.203C86.7066 117.906 86.8652 116.668 86.8691 116.164C86.9556 104.921 80.8393 94.1304 70.5017 89.4535C68.787 88.6778 67.1489 88.2251 65.3223 87.7797Z" fill="#42104C"/>
<path d="M36.944 112.521L35.6508 112.733C36.3771 105.52 39.6589 98.924 45.4173 94.6223C55.8229 86.8489 70.5034 88.4358 78.4568 98.9379C82.488 104.261 84.0133 109.103 84.1735 115.709C83.3765 115.262 82.5327 114.762 81.7015 114.399L81.6335 114.369C81.5667 114.019 81.5024 113.514 81.4756 113.161C80.4825 100.364 69.4034 89.6825 56.2988 91.5717C47.0168 92.9098 39.7424 100.057 37.5366 109.101C37.2626 110.225 37.0265 111.369 36.944 112.521Z" fill="#F0915A"/>
<path d="M73.099 97.3621C72.608 96.8093 71.662 96.0948 71.0385 95.6673C67.8085 93.4527 63.8416 91.9677 59.8988 91.8958C48.0477 91.6794 38.8124 100.86 37.4952 112.41L36.9441 112.521C37.0266 111.369 37.2627 110.225 37.5367 109.101C39.7425 100.057 47.0168 92.9097 56.2989 91.5716C69.4035 89.6824 80.4826 100.364 81.4756 113.161C81.5025 113.513 81.5668 114.019 81.6335 114.369C81.5333 114.339 81.0888 114.226 81.0791 114.103C80.5587 107.526 78.0657 101.764 73.099 97.3621Z" fill="#42104C"/>
<path d="M58.6772 92.6929C57.5266 92.5204 54.2552 93.4827 53.0483 93.9149C46.0515 96.4202 40.8109 102.744 39.6918 110.144C39.6312 110.545 39.5016 111.465 39.5628 111.805L39.5512 111.966C39.2259 112.149 37.9435 112.337 37.4952 112.41C38.8124 100.86 48.0477 91.6795 59.8988 91.8958C63.8416 91.9677 67.8086 93.4527 71.0385 95.6673C71.662 96.0949 72.6081 96.8093 73.0991 97.3622C72.7309 97.2589 70.9822 95.8739 70.477 95.5557C66.7265 93.1938 63.0156 92.4903 58.6772 92.6929Z" fill="#EC6D4E"/>
<path d="M58.677 92.6928C50.3534 93.4619 42.8865 99.7586 40.4009 107.795C39.9819 109.149 39.781 110.412 39.5626 111.805C39.5015 111.465 39.631 110.545 39.6916 110.144C40.8107 102.744 46.0514 96.4201 53.0482 93.9148C54.255 93.4827 57.5265 92.5204 58.677 92.6928Z" fill="#42104C"/>
<path d="M42.0555 111.529C41.7534 111.565 41.7229 111.623 41.5103 111.505C41.2535 110.74 42.9216 106.222 43.3968 105.289C51.2965 89.7819 73.0038 91.6955 78.1736 108.264C78.4579 109.175 79.2909 112.352 79.0134 113.248L78.9049 113.317C78.6841 113.261 78.6844 113.243 78.5124 113.104C78.4536 109.679 76.8415 105.183 74.7405 102.483C64.3589 89.1413 44.5449 95.0665 42.0555 111.529Z" fill="#42104C"/>
<path d="M118.221 95.5962C118.576 95.4133 119.027 95.1215 119.391 95.0869C119.582 95.1718 119.51 95.1048 119.603 95.3068C119.467 95.6092 117.706 96.4193 117.256 96.6827C109.83 100.862 102.458 109.007 97.7215 116.018C96.8402 117.322 95.4907 119.179 94.7794 120.533L94.2689 120.544C94.2486 120.501 94.2235 120.47 94.2539 120.42C98.9274 112.672 104.708 105.412 111.787 99.7434C113.173 98.6334 114.431 97.9223 115.764 96.943C116.06 96.8261 117.773 95.8352 118.221 95.5962Z" fill="#42104C"/>
<path d="M2.37804 96.7858C1.82057 96.4507 1.26655 96.127 0.687926 95.8299C0.381395 95.6724 0.129892 95.5322 0.150197 95.1494L0.257928 95.1011C0.785525 95.1689 2.40961 96.247 3.09215 96.5836C4.42562 97.4493 5.75376 98.2463 7.04474 99.1873C14.5425 104.653 20.9953 112.106 25.168 120.434L24.6158 120.416C19.0501 110.205 12.3368 102.808 2.37804 96.7858Z" fill="#42104C"/>
<path d="M43.7987 111.346C43.3797 111.291 42.5058 111.457 42.0558 111.529C44.5451 95.0667 64.3591 89.1414 74.7408 102.483C76.8418 105.183 78.4538 109.679 78.5127 113.104C78.009 112.785 77.2342 112.498 76.6646 112.27C76.5438 111.534 76.4314 110.795 76.2747 110.063C73.2074 95.7241 55.4721 91.8246 46.7635 103.627C45.3516 105.54 43.7683 109 43.7987 111.346Z" fill="#F0915A"/>
<path d="M118.622 97.1684C118.974 96.95 119.457 96.5803 119.849 96.5542L119.93 96.728C119.682 97.0983 119.419 97.2369 119.048 97.4835C116.979 98.8943 114.113 101.071 112.31 102.861C108.374 106.77 104.768 111.596 101.801 116.293C101.184 117.271 99.6977 119.545 99.3053 120.502L98.6627 120.492C99.4894 118.886 100.531 117.316 101.494 115.784C104.134 111.59 107.171 107.574 110.531 103.937C112.895 101.378 115.735 99.1053 118.622 97.1684Z" fill="#42104C"/>
<path d="M3.09229 96.5834C6.22086 96.5521 7.17481 97.6706 9.89289 99.0262C14.01 101.424 17.3921 104.21 20.671 107.69C21.6994 108.781 22.649 109.706 23.4867 110.975C23.5154 111.281 23.5145 111.264 23.7076 111.507L23.8522 111.569C23.9618 111.466 23.9296 111.517 23.9723 111.433C23.9823 111.521 23.9922 111.608 24.0022 111.696C24.8212 112.794 26.0149 114.184 26.7323 115.302C27.79 116.951 28.8536 118.59 29.608 120.349C29.0156 120.417 25.7887 120.478 25.1682 120.434C20.9954 112.106 14.5427 104.652 7.04487 99.1871C5.75389 98.2461 4.42575 97.4491 3.09229 96.5834Z" fill="#46611E"/>
<path d="M43.7984 111.346C43.768 109 45.3513 105.54 46.7632 103.627C55.4719 91.8246 73.2071 95.7241 76.2745 110.063C76.4311 110.795 76.5435 111.534 76.6643 112.27L76.0319 112.087C75.4755 107.429 73.3833 103.417 69.7977 100.506C60.0323 92.577 45.6221 98.8154 44.1157 111.213C44.0791 111.258 44.0426 111.304 44.006 111.35L43.7984 111.346Z" fill="#42104C"/>
<path d="M94.7793 120.533C95.4906 119.179 96.8401 117.322 97.7214 116.018C102.458 109.007 109.829 100.862 117.256 96.6829C117.845 96.9239 117.891 96.7335 118.621 97.1685C115.735 99.1054 112.895 101.378 110.531 103.937C107.171 107.574 104.133 111.59 101.494 115.784C100.531 117.316 99.4893 118.886 98.6626 120.492C97.3612 120.494 96.0813 120.501 94.7793 120.533Z" fill="#46611E"/>
<path d="M1.02569 97.7609C0.636449 97.5262 0.176001 97.3196 0.00793457 96.9029L0.0721681 96.8106C0.537938 96.8051 0.861763 97.0651 1.26366 97.3105C8.85297 102.128 14.6853 108.848 19.1909 116.629C19.8109 117.699 20.7384 119.337 21.2063 120.426C20.9873 120.46 20.8951 120.46 20.6793 120.46C15.7655 111.003 9.97705 103.634 1.02569 97.7609Z" fill="#42104C"/>
<path d="M2.37845 96.7856C12.3372 102.808 19.0505 110.205 24.6162 120.415L21.2067 120.426C20.7388 119.337 19.8113 117.699 19.1913 116.629C14.6857 108.848 8.85335 102.128 1.26404 97.3105C1.66346 97.1367 1.99087 96.9843 2.37845 96.7856Z" fill="#46611E"/>
<path d="M96.4989 111.181C98.2353 108.622 101.5 105.54 103.807 103.505C106.085 101.496 112.846 96.6869 115.764 96.9429C114.431 97.9223 113.173 98.6334 111.787 99.7434C104.708 105.412 98.9274 112.672 94.2538 120.42C94.2234 120.47 94.2486 120.501 94.2689 120.544C93.0179 120.481 90.8833 120.559 89.6063 120.594C90.2964 119.363 91.1279 118.19 91.7823 116.983C91.7753 116.208 91.7589 115.425 91.788 114.652C91.8465 115.096 91.7506 116.489 91.9788 116.726C92.201 116.632 92.0972 116.698 92.2643 116.464L92.2938 116.03L92.3599 116.226C92.6113 116.095 92.8638 115.684 93.0215 115.442C93.9173 114.066 95.0156 112.854 96.0965 111.623C96.3359 111.451 96.3846 111.439 96.4989 111.181Z" fill="#46611E"/>
<path d="M99.3052 120.502C99.6976 119.545 101.184 117.271 101.801 116.293C104.768 111.596 108.374 106.77 112.31 102.861C114.113 101.071 116.979 98.8945 119.048 97.4836C119.455 98.9663 119.023 99.7373 118.277 101.071C116.397 104.429 113.8 107.307 111.503 110.368C109.025 113.671 106.807 116.994 104.657 120.515C102.91 120.507 101.035 120.544 99.3052 120.502Z" fill="#46611E"/>
<path d="M1.0256 97.761C9.97694 103.634 15.7654 111.003 20.6792 120.461C20.1468 120.424 19.2281 120.452 18.6684 120.452L15.0648 120.442C13.2157 117.175 11.4878 114.268 9.22872 111.253C7.17448 108.341 4.75917 105.718 2.41055 103.05C0.992941 101.439 -0.0839818 99.8773 1.0256 97.761Z" fill="#46611E"/>
<path d="M61.3266 99.7914C58.5475 99.5575 56.0819 100.015 53.6291 101.403C50.984 102.899 48.8176 105.23 47.7084 108.091C47.363 108.981 47.157 109.974 46.9044 110.9C46.7031 111.096 46.8157 111.048 46.5793 111.097C46.4819 111.014 46.3837 110.907 46.4108 110.757C47.5586 104.407 52.61 99.8638 58.9655 99.2308C62.7549 98.8242 66.9165 100.502 69.4839 103.296C71.2945 105.266 72.5927 107.629 73.1031 110.278C73.1837 110.697 73.2929 111.151 73.2806 111.576C73.1432 111.728 73.2249 111.683 73.0311 111.723C72.7055 111.437 72.7412 110.823 72.6473 110.387C71.4562 104.858 67.1212 100.343 61.3266 99.7914Z" fill="#42104C"/>
<path d="M60.8215 103.884C59.4928 103.83 58.46 103.883 57.1792 104.319C54.9848 105.068 53.1187 106.645 52.1037 108.751C51.7781 109.427 51.5896 110.171 51.2542 110.849C51.0718 110.875 51.162 110.882 50.985 110.788C50.9666 110.746 50.916 110.642 50.9246 110.6C51.5915 107.332 54.3649 104.489 57.5815 103.689C58.1458 103.548 58.6869 103.475 59.2738 103.42C63.2334 103.028 66.8846 105.374 68.4708 109.009C68.6749 109.477 69.0196 110.459 69.0529 110.961C68.8449 111.123 68.9545 111.098 68.7242 111.08C68.5354 110.9 68.3868 110.176 68.2766 109.873C67.0234 106.431 64.4434 104.39 60.8215 103.884Z" fill="#42104C"/>
</g>
<defs>
<clipPath id="clip0_20789_20091">
<rect width="120" height="120" fill="white" transform="translate(0 0.689941)"/>
</clipPath>
</defs>
</svg>
