<svg width="98" height="121" viewBox="0 0 98 121" fill="none" xmlns="http://www.w3.org/2000/svg">
<g clip-path="url(#clip0_20789_20003)">
<path d="M49.2145 5.56947C48.9469 5.46502 49.0001 5.52844 48.8465 5.32699C48.7908 4.85072 48.7846 1.17984 48.8688 0.785645C49.0187 0.841603 48.9865 0.832898 49.1228 0.927406C49.2207 1.18482 49.2752 5.12802 49.2145 5.56947Z" fill="#42104C"/>
<path d="M71.732 23.0186C71.5809 22.8768 71.5809 22.8893 71.4979 22.7015C71.6019 22.3807 73.7056 20.1025 74.0587 19.6909L85.6057 6.1514C87.0639 4.45275 88.4267 2.7056 89.9568 1.0542L90.1191 1.10021L90.1724 1.22705C90.103 1.55161 88.0773 3.84218 87.7317 4.2513L81.755 11.2809C78.4372 15.1508 75.092 19.1985 71.7308 23.0161L71.732 23.0186Z" fill="#42104C"/>
<path d="M26.5667 23.3469C26.4317 23.3232 26.3462 23.3344 26.247 23.2175C23.9847 20.5527 21.7485 17.8132 19.4886 15.1508L11.9113 6.28945C10.5683 4.7052 9.13984 3.16945 7.81046 1.57027C7.67665 1.40986 7.74851 1.2967 7.79064 1.12012C7.93064 1.14872 8.0471 1.22209 8.13878 1.33027C9.24019 2.62851 10.3627 3.92675 11.4728 5.21629L18.3401 13.1985C19.9718 15.0986 21.5539 17.0608 23.1732 18.9386L25.5173 21.688C25.8332 22.0586 26.1678 22.3844 26.4651 22.7599C26.6509 22.9949 26.6014 23.0907 26.5667 23.3469Z" fill="#42104C"/>
<path d="M65.4295 5.90638C65.2809 5.84918 65.292 5.84918 65.1904 5.72483C65.2103 5.35923 67.0488 1.69208 67.3846 1.09644C67.5395 1.17105 67.5407 1.15737 67.6262 1.3041C67.563 1.57892 67.4156 1.81395 67.2867 2.06389C66.6326 3.32731 66.0416 4.62182 65.4308 5.90638H65.4295Z" fill="#42104C"/>
<path d="M32.9159 5.9885C32.8155 5.97855 32.6669 5.98103 32.6148 5.87534C32.2605 5.1516 30.2299 1.68839 30.3191 1.16113C30.4839 1.18973 30.5929 1.22082 30.666 1.38248C30.9794 2.07886 33.0162 5.53212 32.9159 5.98974V5.9885Z" fill="#42104C"/>
<path d="M67.3932 107.706C65.4568 106.893 63.0532 106.163 61.0474 105.485L49.4869 101.602L41.3322 98.8549C40.2543 98.4955 38.7527 97.9533 37.712 97.6611C36.281 97.2594 33.2617 97.7233 31.8345 97.4261C31.7701 96.5444 31.7961 95.5297 31.7973 94.6381L31.7948 90.3939V76.0375L31.7639 30.2385C31.7614 28.9129 31.609 19.9384 31.8407 19.3315C32.2718 19.1251 40.3708 19.2109 41.5527 19.247C44.38 19.3328 44.7987 19.3117 47.5009 17.9351C48.4672 17.4426 50.2699 16.6791 51.3366 16.1705L62.4747 10.8967L65.6897 9.36968C66.194 9.13466 67.0934 8.68948 67.5989 8.55518C67.786 8.77901 67.7055 10.7848 67.7067 11.1927L67.7191 16.362L67.724 34.6008L67.7724 97.6449V104.152C67.7724 104.68 67.8578 107.337 67.6447 107.582C67.5605 107.625 67.48 107.673 67.392 107.705L67.3932 107.706ZM32.2694 19.7282C32.1975 23.5322 32.2619 27.4605 32.2656 31.2768L32.2731 50.8138L32.2867 97.0281L36.5511 97.0219C36.4471 94.071 36.3876 91.0816 36.2625 88.1382L34.9021 42.4673L34.4375 30.0097L34.2665 26.2891C34.2355 25.6337 34.1686 24.7334 34.1971 24.1005C35.1548 23.6142 36.1918 23.1977 37.1743 22.74L43.3938 19.7929C39.7017 19.6797 35.9651 19.7494 32.2681 19.7282H32.2694Z" fill="#42104C"/>
<path d="M34.6765 24.4424C38.0774 22.8084 41.456 21.3236 44.8507 19.7431L67.107 9.27393L67.1875 9.30128C67.2371 9.51766 67.2172 10.7686 67.2197 11.1007L67.2371 16.1991L67.2606 34.1618L67.2916 107.091C65.8544 106.631 64.3578 106.062 62.9045 105.576L45.63 99.7688L40.419 98.0366C39.3523 97.6859 38.1195 97.2631 37.0417 97.002L36.9909 96.2845L36.0233 66.1017C35.9341 63.6644 34.6753 24.4424 34.6753 24.4424H34.6765ZM60.0425 19.8438L46.3349 25.4571L41.9194 27.2329C41.0732 27.5711 40.004 27.9665 39.2011 28.3632C39.2172 30.7744 39.3795 33.3075 39.4787 35.7261L40.0188 49.0144C40.1291 51.7017 40.2852 54.425 40.3249 57.1135C40.3335 57.4132 40.2877 57.3933 40.419 57.6171C40.7758 57.6992 43.4965 57.3336 44.0602 57.2789L54.9988 56.1783C55.7224 56.1025 59.9162 55.7381 60.2123 55.5628C60.4018 54.8154 60.3449 52.9116 60.3461 52.0573L60.3597 46.8494L60.3857 28.5224C60.3833 27.4778 60.4514 20.2666 60.3003 19.8787C60.1454 19.8339 60.2024 19.8376 60.0413 19.8451L60.0425 19.8438ZM57.9834 64.7736L45.096 65.0733C44.6128 65.0845 40.9171 65.0907 40.7064 65.2362C40.611 65.4438 40.6321 65.838 40.6408 66.0743C40.9096 73.4782 41.3036 80.8797 41.5204 88.2861C41.5378 88.8631 41.5514 89.4861 41.6332 90.0532C41.9838 90.3442 42.6813 90.6053 43.1174 90.7955C44.8668 91.564 46.5926 92.3773 48.347 93.1346L53.3523 95.3468C54.2753 95.7659 59.5953 98.2716 60.2965 98.35C60.325 98.3102 60.3548 98.2704 60.3845 98.2293C60.4452 96.4685 60.413 94.03 60.408 92.3388L60.3597 73.1487L60.3523 68.0552C60.3523 67.3564 60.4093 65.4103 60.1937 64.8656C59.8493 64.6505 58.4641 64.7599 57.9847 64.7723L57.9834 64.7736Z" fill="#FEFEFE"/>
<path d="M32.2868 97.0282L32.2732 50.8139L32.2658 31.2769C32.262 27.4605 32.1964 23.5322 32.2695 19.7283C35.9652 19.7494 39.7031 19.6785 43.3951 19.7929L37.1757 22.7401C36.1932 23.1977 35.1562 23.6143 34.1985 24.1005C34.17 24.7334 34.2369 25.6338 34.2679 26.2891L34.4389 30.0097L34.9035 42.4673L36.2638 88.1382C36.3889 91.0816 36.4484 94.0698 36.5525 97.0219L32.2881 97.0282H32.2868Z" fill="#FEFEFE"/>
<path d="M39.2027 28.3631C40.0043 27.9676 41.0747 27.5722 41.9209 27.2327L46.3365 25.457L60.0441 19.8437C60.2039 19.8362 60.1482 19.8313 60.3031 19.8773C60.4542 20.2653 60.3861 27.4752 60.3885 28.521L60.3625 46.8481L60.3489 52.0559C60.3489 52.9115 60.4059 54.8141 60.2151 55.5614C59.9202 55.7368 55.7252 56.1011 55.0016 56.177L44.0631 57.2775C43.4981 57.3322 40.7774 57.6978 40.4218 57.6157C40.2905 57.3919 40.3351 57.4118 40.3277 57.1121C40.288 54.4236 40.1307 51.7015 40.0216 49.013L39.4815 35.7247C39.3823 33.3049 39.2188 30.773 39.2039 28.3618L39.2027 28.3631ZM59.7418 20.5314C55.4439 22.2014 51.0432 24.0456 46.7565 25.8014L42.4735 27.5374C41.5951 27.8905 40.5321 28.2922 39.6946 28.6939C39.7082 31.7641 39.9213 35.0371 40.0514 38.1247L40.7972 56.3983L40.8232 57.1581C45.3689 56.6321 49.9691 56.264 54.5184 55.738C56.2431 55.5378 58.1808 55.406 59.8756 55.156C59.9425 53.3629 59.9078 51.4329 59.9115 49.6236L59.9153 39.5834C59.9091 33.4118 59.9277 27.2352 59.9115 21.0636C59.9115 20.8497 59.9289 20.6918 59.8236 20.5314H59.7431H59.7418Z" fill="#42104C"/>
<path d="M24.3788 36.9263C24.1583 36.8952 22.2008 35.6815 21.8328 35.4689L13.1144 30.3356C10.8447 29.0038 8.56006 27.7056 6.3151 26.3302C5.72165 25.9671 1.66413 23.6815 1.5266 23.3694C1.49068 23.2886 1.56749 23.1443 1.59475 23.0623C1.88714 23.1966 2.23156 23.3918 2.50413 23.5634C4.0813 24.5532 5.68944 25.4809 7.29014 26.4297L19.8121 33.8411C20.548 34.2763 24.2475 36.1827 24.4383 36.6316C24.4829 36.7348 24.4148 36.8281 24.3801 36.9275L24.3788 36.9263Z" fill="#42104C"/>
<path d="M73.5893 36.9048C73.5373 36.8812 73.4778 36.824 73.4307 36.7855L73.4382 36.6536C73.7479 36.2507 75.7389 35.2149 76.3608 34.8431L86.7902 28.71C88.4813 27.714 90.1713 26.6943 91.8624 25.6945C93.2711 24.8626 94.6723 23.9088 96.1206 23.1328C96.3077 23.2758 96.2557 23.1863 96.3065 23.3952C96.1975 23.6352 94.6401 24.4646 94.2796 24.6835L83.3484 31.2058C80.9288 32.6507 78.4806 34.0373 76.0746 35.5084C75.2891 35.9884 74.4182 36.5106 73.5893 36.9048Z" fill="#42104C"/>
<path d="M41.2765 30.7545C42.6629 30.0631 45.3799 29.2623 46.9508 28.6617C50.2848 27.3883 53.703 26.0814 57.0668 24.8938L57.12 24.9323C57.1894 25.2146 57.1386 26.5987 57.1337 27.0103L57.1002 31.1736L56.8066 52.015C56.2664 52.127 55.746 52.1705 55.2046 52.2513C50.9253 52.8805 46.5903 53.3294 42.3246 54.0295L42.254 53.3518L41.2765 30.757V30.7545ZM56.5179 25.4509C52.0552 27.0687 47.6657 28.9178 43.1696 30.4561C42.6814 30.6227 42.1698 30.8043 41.6891 30.9895C41.8699 38.3226 42.2937 45.7464 42.5823 53.0845C42.6158 53.3332 42.5761 53.3854 42.7149 53.5259C43.156 53.5135 43.9551 53.373 44.4147 53.3083L47.5183 52.8718L56.4299 51.6693L56.6926 33.4107L56.7645 27.969C56.7706 27.249 56.8264 26.1522 56.7756 25.4758C56.622 25.4086 56.7013 25.4322 56.5167 25.4509H56.5179Z" fill="white"/>
<path d="M25.8618 47.2474H25.7479C25.256 47.2474 24.1496 47.1131 23.6206 47.0633L19.3376 46.6716L5.0117 45.4878C3.58568 45.3684 1.63683 45.2067 0.167444 45.0675C0.136471 45.0364 0.105497 45.0053 0.0745239 44.973L0.0794798 44.6509C1.22921 44.6944 2.73205 44.8697 3.90533 44.9742L10.722 45.5549C14.9976 45.8981 19.2831 46.2028 23.5487 46.6641C24.0567 46.7189 25.5261 46.6903 25.868 46.9949L25.8606 47.2474H25.8618Z" fill="#42104C"/>
<path d="M72.3666 47.3966C72.3233 47.3966 72.1697 47.3717 72.1201 47.3643L72.0346 47.2188L72.0718 47.1392C72.3865 46.8606 74.6884 46.7686 75.2583 46.7189L80.976 46.1891L90.7835 45.2876C93.0024 45.0837 95.365 44.8238 97.5803 44.6895C97.7624 44.7069 97.7686 44.6895 97.9098 44.8001L97.8937 44.9158C97.7277 45.0488 97.4985 45.1147 97.2904 45.1284C95.4691 45.2466 93.633 45.4219 91.8155 45.5848L81.5918 46.5311C78.5477 46.801 75.3971 47.0347 72.3666 47.3966Z" fill="#42104C"/>
<path d="M48.3457 93.1359C46.5926 92.3786 44.8656 91.5654 43.1162 90.7969C42.6813 90.6054 41.9838 90.3455 41.6319 90.0545C41.5502 89.4874 41.5365 88.8644 41.5192 88.2874C41.3024 80.881 40.9084 73.4796 40.6395 66.0756C40.6309 65.8394 40.6098 65.4451 40.7052 65.2375C40.9158 65.092 44.6116 65.0858 45.0948 65.0746L57.9822 64.7749C58.4617 64.7625 59.8468 64.653 60.1912 64.8682C60.4056 65.4128 60.3486 67.3589 60.3498 68.0578L60.3572 73.1513L60.4056 92.3413C60.4105 94.0325 60.4427 96.4711 60.382 98.2319C60.3523 98.2717 60.3238 98.3115 60.294 98.3525C59.5928 98.2742 54.2728 95.7685 53.3498 95.3494L48.3445 93.1372L48.3457 93.1359ZM57.7084 65.2698L47.7213 65.4899C45.8096 65.5198 43.001 65.5123 41.1289 65.6628C41.254 70.5225 41.4845 75.402 41.705 80.2605C41.8463 83.3743 41.8116 86.7094 42.0928 89.7958C44.0763 90.7521 46.4192 91.7954 48.4585 92.636C52.241 94.3173 56.0879 96.1266 59.9075 97.7034C59.9732 95.6354 59.9372 93.4319 59.9372 91.3564L59.9236 80.794C59.9013 75.6968 59.9992 70.321 59.8555 65.2425C59.1505 65.2449 58.4121 65.235 57.7096 65.2686L57.7084 65.2698Z" fill="#42104C"/>
<path d="M43.1425 88.6381C42.9963 86.6733 43.005 84.5929 42.9208 82.6194L42.3533 68.2294C43.5749 68.1436 45.6241 68.3214 46.9077 68.3649C50.2392 68.4781 53.6673 68.7629 56.9926 68.8623L57.1178 94.4167C56.6519 94.413 54.2905 93.3299 53.7404 93.0999L47.5655 90.5183L44.9762 89.4352C44.4409 89.2176 43.622 88.9229 43.1438 88.6381H43.1425ZM42.7349 68.5577C42.7263 70.4715 42.8762 72.3467 42.9629 74.2518L43.3346 84.1527C43.3804 85.5268 43.487 87.0252 43.4944 88.3844C47.8765 90.1962 52.3627 91.9894 56.6891 93.9293L56.6209 69.2292L42.7349 68.5577Z" fill="white"/>
<path d="M67.7735 97.646C67.7872 97.6597 67.8008 97.6733 67.8144 97.687C69.6592 98.1036 71.3095 98.2553 73.1926 98.6209C77.721 99.4964 94.0291 103.697 89.7473 110.727C87.1084 115.058 77.4905 117.526 72.7194 118.414C63.6726 120.206 54.3286 120.749 45.1245 120.529C36.9203 120.333 28.5946 119.527 20.627 117.503C18.7079 117.015 13.5229 115.588 12.0623 114.409C12.7734 114.337 15.0976 114.396 15.8744 114.399L24.1877 114.467L47.2109 114.611L54.3013 114.675C55.368 114.681 56.4459 114.688 57.5114 114.68C57.8013 114.677 58.2164 114.615 58.4617 114.48C60.1429 113.548 65.7751 110.199 66.8815 108.989C67.382 108.758 67.4737 108.212 67.3919 107.709C67.4799 107.677 67.5604 107.63 67.6447 107.585C67.8578 107.339 67.7735 104.683 67.7723 104.156V97.6485L67.7735 97.646Z" fill="#F0915A"/>
<path d="M34.9404 98.4346C34.6232 98.4433 33.4326 98.457 33.2257 98.4818C32.3498 98.5875 28.2402 98.9606 27.622 99.2528C26.6544 99.744 25.408 100.607 24.4986 101.22L20.8314 103.676L11.8193 109.818C10.8009 110.523 9.61645 111.259 8.63893 111.98C6.47822 109.296 7.25132 106.516 9.90265 104.527C16.7206 99.4095 26.6023 97.773 34.9404 98.4358V98.4346Z" fill="#F0915A"/>
<path d="M27.6219 99.2528C28.2401 98.9606 32.3496 98.5875 33.2256 98.4818C33.4312 98.457 34.6231 98.4445 34.9403 98.4346C35.5932 98.4395 36.821 98.4097 37.4033 98.5863C38.1206 98.8039 38.9606 99.1459 39.6829 99.4008L44.2757 100.988L58.7068 105.848C60.6718 106.524 62.6095 107.25 64.6104 107.831C64.9882 107.94 66.2606 108.299 66.4353 108.607C65.6473 109.2 64.7342 109.761 63.8992 110.297L59.1813 113.279C56.4767 113.343 53.6631 113.306 50.9511 113.311L39.1403 113.356L10.4923 113.486C9.89145 113.154 9.48632 112.72 8.91888 112.409C12.9665 109.766 16.9496 106.919 20.9861 104.214L25.3459 101.307C25.9307 100.918 27.322 100.03 27.7854 99.6072C27.7891 99.4344 27.7296 99.3946 27.6243 99.2516L27.6219 99.2528Z" fill="#42104C"/>
<path d="M8.63795 111.98C9.61547 111.26 10.8011 110.524 11.8183 109.818L20.8303 103.676L24.4975 101.22C25.4069 100.607 26.6533 99.7439 27.6209 99.2527C27.7262 99.3969 27.7857 99.4355 27.782 99.6083C27.3174 100.031 25.9273 100.919 25.3425 101.308L20.9827 104.216C16.9462 106.919 12.9643 109.767 8.91547 112.41L7.35193 113.505C8.31954 113.505 9.53866 113.537 10.4889 113.487L39.1368 113.357L50.9476 113.312C53.6609 113.307 56.4733 113.343 59.1779 113.28L63.8958 110.298C64.7296 109.762 65.6427 109.201 66.4319 108.608C66.5756 108.845 66.6239 108.858 66.8791 108.987C65.7728 110.197 60.1393 113.546 58.4593 114.477C58.214 114.613 57.799 114.675 57.509 114.677C56.4436 114.686 55.3657 114.679 54.299 114.672L47.2085 114.609L24.1853 114.465L15.8721 114.396C15.0952 114.394 12.771 114.335 12.0599 114.406L8.61441 114.417C8.11636 114.422 6.47353 114.524 6.14892 114.262C6.02875 114.023 6.04981 114.144 6.0622 113.894C6.36078 113.449 8.06556 112.379 8.63547 111.979L8.63795 111.98Z" fill="black"/>
<path d="M7.35327 113.506L8.91681 112.412C9.48425 112.723 9.88814 113.157 10.4903 113.489C9.54 113.539 8.32088 113.507 7.35327 113.506Z" fill="#FEFEFE"/>
<path d="M63.6022 63.3449C64.6218 63.3449 65.4483 61.7437 65.4483 59.7685C65.4483 57.7933 64.6218 56.1921 63.6022 56.1921C62.5827 56.1921 61.7562 57.7933 61.7562 59.7685C61.7562 61.7437 62.5827 63.3449 63.6022 63.3449Z" fill="#42104C"/>
</g>
<defs>
<clipPath id="clip0_20789_20003">
<rect width="98" height="120" fill="white" transform="translate(0 0.689941)"/>
</clipPath>
</defs>
</svg>
