<svg width="108" height="121" viewBox="0 0 108 121" fill="none" xmlns="http://www.w3.org/2000/svg">
<g clip-path="url(#clip0_21292_7566)">
<path d="M49.8211 6.99513C49.0437 7.0159 49.4385 5.89659 49.5585 5.32648C49.8719 3.8368 50.0745 2.22766 50.4797 0.769531C50.7025 0.805517 50.689 0.801365 50.884 0.915691C51.0646 1.35652 50.0915 6.28081 49.8211 6.99513Z" fill="black"/>
<path d="M39.0788 7.16264C38.8679 7.16209 38.6277 7.15641 38.596 6.89745C38.4814 5.9632 37.5459 1.72956 37.8229 1.14575C37.9396 1.16665 38.2223 1.18105 38.2432 1.32444C38.3786 2.25344 39.3257 6.56624 39.0788 7.16264Z" fill="black"/>
<path d="M59.7888 10.7598C59.7149 10.7888 59.6352 10.7904 59.5517 10.8008C59.3342 10.6913 59.4092 10.7733 59.3189 10.5467C59.3525 10.0589 61.6999 5.62557 62.0443 4.94336C62.3345 4.98031 62.2763 4.93243 62.4845 5.08675C62.5 5.15125 62.5154 5.21589 62.5309 5.28038C61.8019 6.83789 60.5461 9.32094 59.7888 10.7598Z" fill="black"/>
<path d="M28.9992 10.833L28.7579 10.7878C28.3472 10.5074 26.4553 6.55747 26.0626 5.85698C25.9066 5.57864 25.8332 5.40148 25.9415 5.09546L26.2821 5.13158C26.7422 5.52065 28.3863 9.23857 28.845 9.94058C29.0139 10.1993 29.1105 10.5251 28.9992 10.833Z" fill="black"/>
<path d="M67.8927 16.9789L67.6932 16.9123C67.5088 16.695 67.5476 16.8139 67.539 16.5566C68.1004 15.736 70.4979 13.4704 71.3086 12.7075C71.5513 12.7568 71.5886 12.776 71.6593 12.9814C71.5292 13.3824 68.3799 16.5719 67.8927 16.9789Z" fill="black"/>
<path d="M20.9728 17.5122C20.9083 17.5112 20.8865 17.5134 20.8175 17.4986C20.465 17.423 16.7727 13.8072 16.5074 13.304C16.4085 13.116 16.4524 13.0258 16.5103 12.8301C17.1025 12.8418 20.3637 16.4443 21.0036 17.0275C21.1341 17.1465 21.0208 17.3724 20.9728 17.5122Z" fill="black"/>
<path d="M41.244 20.9972C41.1414 20.9768 40.804 20.9032 40.7945 20.793C40.705 19.7563 39.616 14.9455 39.8851 14.2249C40.0094 14.2406 40.3217 14.2607 40.3381 14.3979C40.4582 15.3956 41.4949 20.4226 41.244 20.9972Z" fill="black"/>
<path d="M47.4597 20.8128C47.403 20.8152 47.2963 20.8227 47.2428 20.8108C47.1629 20.7928 47.0764 20.7404 47.0461 20.6619C46.9026 20.2916 47.8986 14.9794 48.1033 14.3513C48.3417 14.4053 48.3531 14.3978 48.5727 14.5259C48.6702 14.7811 47.6643 20.2218 47.4597 20.8128Z" fill="black"/>
<path d="M53.3563 22.8726C53.1167 22.8694 53.0737 22.8532 52.9517 22.6837C52.9674 22.5561 55.8085 17.3544 56.0243 17.0542C56.0959 17.0657 56.2372 17.106 56.3123 17.1252C56.3672 17.1861 56.469 17.2703 56.4461 17.3252C55.9709 18.4589 53.9548 22.0487 53.3563 22.8726Z" fill="black"/>
<path d="M35.2543 22.9208L35.0352 22.8743C34.6161 22.5287 32.8247 18.8746 32.3567 18.1077C32.117 17.7147 32.0445 17.532 32.1756 17.1313C32.2357 17.1354 32.4568 17.1477 32.4841 17.1921C32.9775 17.9939 35.5561 22.2187 35.2543 22.9208Z" fill="black"/>
<path d="M30.8675 27.2399C30.2975 27.107 29.1272 25.7747 28.6806 25.3097C27.8101 24.4032 26.7818 23.4842 25.9708 22.54C25.9079 22.265 25.929 22.3463 26.0181 22.041C26.1501 22.0623 26.3418 22.1015 26.4697 22.2328C27.929 23.7293 29.4268 25.2084 30.8792 26.7069C30.9977 26.8291 30.9028 27.0877 30.8675 27.2399Z" fill="black"/>
<path d="M57.8342 27.078L57.6872 27.0467C57.4974 26.8423 57.5378 26.9569 57.5313 26.7033C57.6992 26.4497 57.9983 26.2088 58.2306 26.0053C59.6241 24.7843 60.8992 23.4196 62.2663 22.1733C62.3145 22.1937 62.4548 22.2802 62.5054 22.3099C62.5349 22.385 62.5902 22.4788 62.5523 22.5333C61.969 23.3729 58.4566 26.7061 57.8342 27.078Z" fill="black"/>
<path d="M14.8939 26.0505C14.3399 25.9452 9.51231 23.5009 9.16873 23.1877C9.08556 22.9168 9.101 23.0587 9.18004 22.7434C9.69935 22.8281 14.3474 25.1614 14.8859 25.5625C14.9937 25.8188 14.9643 25.7285 14.8939 26.0505Z" fill="black"/>
<path d="M73.6386 26.0122C73.4131 25.806 73.3178 25.7701 73.4186 25.4689C73.7643 25.2093 78.148 22.9157 78.4811 22.8354C78.7221 22.9532 78.7237 23.0307 78.6823 23.2594C78.3898 23.5895 74.349 25.6226 73.6386 26.0122Z" fill="black"/>
<path d="M46.0314 28.9139C45.7754 28.9201 45.6939 28.9218 45.5774 28.7099C45.6233 28.0815 46.4105 23.4481 46.6018 23.0168C46.8415 23.0358 46.9636 23.0265 47.0836 23.2251C47.0412 23.7984 46.2287 28.4862 46.0314 28.9139Z" fill="black"/>
<path d="M42.339 28.945C42.1434 28.9071 42.1512 28.9119 41.9781 28.8146C41.9189 28.6737 41.7654 27.6038 41.7634 27.4311C41.7535 26.535 40.9521 23.7512 41.4388 23.1328C41.7026 23.2359 41.772 23.3847 41.816 23.6687C42.0752 25.3422 42.379 27.0582 42.4676 28.7461C42.4248 28.8124 42.3819 28.8787 42.339 28.945Z" fill="black"/>
<path d="M49.4308 29.9281C49.2447 30.0069 49.3397 29.9923 49.1378 29.9404L49.0644 29.7917C49.0853 29.3478 51.2726 25.4309 51.6763 24.7578C51.9043 24.8337 51.9157 24.824 52.1041 24.987C52.1738 25.3681 49.784 29.3968 49.4308 29.9281Z" fill="black"/>
<path d="M38.9272 30.0799C38.3977 29.9184 36.5465 25.9762 36.241 25.2209C36.1862 25.0853 36.3167 24.9577 36.3874 24.8591C36.4088 24.8666 36.5299 24.9076 36.555 24.9221C36.8222 25.0784 38.9938 29.2926 39.0691 29.6965C39.1037 29.8829 39.0283 29.9314 38.9272 30.0799Z" fill="black"/>
<path d="M52.3211 32.2269C52.1268 32.1526 52.1961 32.1858 52.0348 32.0341L52.0334 31.8507C52.3924 31.2712 55.1891 28.7372 55.8029 28.2725C56.0171 28.3389 56.0203 28.3652 56.091 28.5408C56.0025 28.9466 52.8912 31.6974 52.3211 32.2269Z" fill="black"/>
<path d="M27.0143 32.0057C26.5301 31.9422 21.7723 29.547 21.2799 29.1685C21.2181 28.9108 21.2468 28.9707 21.3392 28.676C21.8885 28.7282 26.6279 31.1848 27.0708 31.5638C27.1319 31.8016 27.1109 31.7304 27.0143 32.0057Z" fill="black"/>
<path d="M54.4352 35.3734C54.2175 35.333 54.1895 35.3026 54.1368 35.119C54.212 34.9656 54.3099 34.853 54.4652 34.7779C58.5417 32.8101 62.644 30.6689 66.7506 28.7832L66.9506 28.9031C67.053 29.1126 67.0462 29.0094 66.9899 29.2211C66.6085 29.6424 55.8313 34.7493 54.4352 35.3734Z" fill="black"/>
<path d="M35.7599 32.3452C35.3919 32.0707 32.9785 29.7312 32.7354 29.3903C32.8085 29.1369 32.8414 29.1745 33.0709 28.9626C33.4199 29.2152 35.7832 31.6345 36.0298 31.9615C36.0004 32.1925 35.9825 32.1381 35.7599 32.3452Z" fill="black"/>
<path d="M33.8081 35.3542C33.2503 35.2275 29.7492 33.5386 29.0917 33.1678C28.9801 32.9433 29.0099 33.0265 29.0981 32.7124C29.193 32.7119 29.4404 32.7162 29.5164 32.7552C30.5434 33.2835 32.9552 34.2644 33.7935 34.8463C33.8997 35.0947 33.86 35.038 33.8081 35.3542Z" fill="black"/>
<path d="M77.6759 35.392C77.1924 35.481 77.0618 35.5193 76.5779 35.4242L76.4774 35.2454C76.8815 34.792 77.7396 34.7137 78.3001 34.6289C79.0192 34.4961 82.7156 33.7078 83.2237 33.8746L83.3606 34.0177C83.2708 34.7629 78.4041 35.1138 77.6759 35.392Z" fill="black"/>
<path d="M11.5465 35.9497C9.98212 35.5865 8.39191 35.3378 6.81246 35.0528C6.39701 34.9779 5.93577 34.9275 5.54722 34.7703C5.42515 34.5154 5.47163 34.5674 5.52308 34.228C6.11536 34.2684 11.4729 35.2327 11.6567 35.4203C11.7098 35.6307 11.6315 35.7453 11.5465 35.9497Z" fill="black"/>
<path d="M49.7549 44.8401C49.4603 44.0885 49.1661 43.3302 48.8913 42.574C48.317 40.9715 47.7312 39.3008 46.0349 38.58C45.0332 38.1544 43.7843 38.0978 42.7626 38.507C41.0341 39.1992 39.8407 41.4492 40.1345 43.2724C40.3179 44.411 40.8403 45.5996 41.1623 46.7261C39.9327 46.2384 38.4946 44.4398 38.1105 43.185C37.3302 40.636 38.1007 37.8884 40.1909 36.2222C44.9017 32.4672 51.853 36.5834 50.7065 42.5637C50.5394 43.4355 50.1636 44.0704 49.7549 44.8401Z" fill="#46611E"/>
<path d="M64.9142 37.341C64.6185 37.3571 64.6827 37.3975 64.4658 37.2707C64.3592 37.0566 64.3666 37.1631 64.433 36.9414C64.7003 36.698 68.3321 36.1964 69.0542 36.0768L69.3799 36.0562C69.5724 36.171 69.4946 36.0921 69.592 36.3261L69.5001 36.4746C68.9385 36.812 65.7458 37.2092 64.9142 37.341Z" fill="black"/>
<path d="M25.4243 37.9033C25.2076 37.8796 24.1777 37.7256 24.0059 37.6803C23.2734 37.4875 19.2252 37.1195 18.9349 36.7837C18.9354 36.4895 18.9061 36.6325 19.0677 36.3501C21.1212 36.543 23.3034 36.9778 25.3503 37.2886C25.5095 37.3127 25.5473 37.4226 25.6028 37.544C25.5539 37.8106 25.608 37.6936 25.4243 37.9033Z" fill="black"/>
<path d="M56.1545 38.7945C55.8879 38.8387 55.7607 38.8353 55.4873 38.8363C55.2892 38.7206 55.3663 38.7985 55.2572 38.5851L55.3109 38.4683C55.4538 38.3688 55.6379 38.2778 55.8096 38.2558C57.6812 38.0164 59.5634 37.6031 61.4233 37.3224L61.5041 37.3112C61.8651 37.2641 61.9665 37.2322 62.2561 37.4571L62.2703 37.5726C61.9 37.9623 57.0487 38.6575 56.1545 38.7945Z" fill="black"/>
<path d="M32.7292 38.8447C32.2145 38.8554 28.1283 38.3593 27.7352 38.2066C27.6106 37.9832 27.6556 38.01 27.6641 37.7095C28.3648 37.7081 32.0132 38.1655 32.6513 38.3628C32.7858 38.5819 32.7397 38.5358 32.7292 38.8447Z" fill="black"/>
<path d="M41.1622 46.7261C40.8401 45.5996 40.3178 44.4109 40.1343 43.2724C39.8406 41.4491 41.0339 39.1992 42.7625 38.507C43.7841 38.0977 45.0331 38.1543 46.0348 38.5799C47.731 39.3008 48.3168 40.9715 48.8912 42.574C49.1659 43.3301 49.4601 44.0885 49.7548 44.84L53.0985 53.6576C53.6761 55.1899 54.3343 57.1206 54.9822 58.5766C55.1167 57.0597 55.5134 55.7049 56.7203 54.6919C58.6961 53.0335 61.5666 53.737 63.0412 55.7006C63.9019 56.8468 64.2263 58.3736 64.7374 59.6828C65.0783 58.313 65.701 57.073 66.9243 56.324C69.2608 54.8934 72.3076 55.946 73.6134 58.2681C73.8868 58.7542 73.9784 59.1027 74.181 59.5968C74.9492 54.8831 80.0891 53.9482 82.7294 57.321C83.4775 58.2767 85.2062 63.5921 85.7131 65.0073L90.1688 77.2485C90.8979 79.2402 91.6932 81.2227 92.4344 83.2105C93.3888 85.7705 94.537 88.2695 93.8932 91.071C93.4472 93.0121 92.6513 94.8265 91.9286 96.6771C92.6935 99.1365 93.5921 101.668 94.4597 104.094C95.1197 105.94 95.7392 107.852 96.4248 109.68C94.9582 110.316 92.9527 110.971 91.4033 111.539L81.9628 115.001C78.7596 116.171 75.5418 117.347 72.3406 118.527C71.8364 118.713 71.2666 118.968 70.759 119.114C69.7843 116.346 67.4083 109.816 65.8217 107.719C64.975 106.6 63.947 105.771 62.6883 105.164C59.44 103.596 55.5134 103.047 52.7963 100.513C51.2381 99.0606 50.2435 97.0401 49.2252 95.1939C47.273 91.6541 45.5483 87.9719 43.3982 84.5463C42.8146 83.6165 42.2126 82.6302 41.5167 81.7804C41.0146 81.1672 40.4052 80.6397 39.7879 80.1478C38.9937 79.5153 35.6359 77.3314 35.4012 76.4392C35.3531 76.2561 35.4054 76.102 35.5047 75.9481C36.135 74.9712 37.9619 74.213 39.0615 74.0078C41.3339 73.5838 43.8498 74.2633 45.7326 75.5708C48.0983 77.2137 50.0058 79.7867 51.6455 82.1327C52.2919 83.0576 52.9088 84.0349 53.6141 84.9145C53.7741 85.1143 54.0179 85.445 54.2829 85.4498C54.3348 85.2067 54.2246 84.8659 54.1443 84.6269L45.0919 58.1864L42.4239 50.4972C42.0727 49.4629 41.565 47.6761 41.1622 46.7261ZM43.8037 38.8291C41.3566 39.4497 40.141 41.6252 40.9073 44.0208C41.4036 45.5721 41.9026 47.1156 42.4355 48.6565L44.9287 55.8224L51.5183 75.1541L53.7512 81.5626C54.145 82.6948 54.5243 83.826 54.9112 84.9669C55.2494 85.964 54.411 86.5196 53.7244 85.9611C52.9403 85.3233 52.3286 84.0276 51.68 83.2312C48.6724 79.1736 45.4327 73.9806 39.6548 74.5282C38.3183 74.6548 36.8644 75.2555 35.9828 76.2698C37.7683 78.1905 40.7126 79.7067 42.0175 81.4379C44.8479 85.1928 47.0425 89.8467 49.2731 93.9865C50.2599 95.7912 51.1481 97.6363 52.4403 99.2426C56.0399 103.718 63.8119 102.846 66.7546 107.977C68.4546 110.94 69.8475 115.103 71.1272 118.33C73.3926 117.572 75.6618 116.68 77.9114 115.865L95.5887 109.358C94.7821 106.656 93.6426 103.647 92.7186 100.95L91.2472 96.6652L91.2792 96.5571C92.0452 94.0132 93.5784 91.6377 93.4001 88.8357C93.3499 88.0467 93.1973 87.196 92.9295 86.4566C92.1432 84.286 91.3131 82.1045 90.508 79.9415L86.3574 68.6271L84.0851 62.3673C83.2455 59.9828 82.6795 56.8849 79.9559 56.0966C77.0639 55.2414 74.2699 57.7932 74.8732 60.7878C75.2477 62.6464 76.2909 64.4062 76.8819 66.2123C77.0589 66.7531 77.5032 67.3921 77.2498 67.8893L77.1112 67.9125C76.7019 67.6188 76.3545 66.5561 76.1549 66.0512C75.4979 64.4024 74.8673 62.7361 74.1302 61.1213C73.7512 60.2908 73.5131 59.3301 73.0592 58.5448C70.5812 54.2626 64.465 56.471 65.5257 61.4276C65.9444 63.3841 66.9422 65.173 67.6337 67.0435C67.8393 67.5997 68.4469 68.5747 68.3745 69.1166C68.2279 69.2878 68.3195 69.2251 68.0708 69.2772C67.4695 69.0576 64.0359 59.3296 63.5247 58.1824C63.245 57.5546 62.9186 56.5625 62.4523 55.9512C60.6523 53.5316 56.8521 53.901 55.9268 56.9336C54.9971 59.9798 56.8268 63.0544 57.756 65.861C58.2713 67.3387 58.8247 68.7887 59.3319 70.2678C59.5012 70.7618 59.9356 71.4929 59.4955 71.7358C58.9306 71.5258 58.5361 69.8078 58.3073 69.1916L56.2132 63.4908L50.2996 47.937C49.3844 45.4992 48.4564 42.6923 47.2771 40.3539C46.709 39.2274 45.0588 38.7347 43.8037 38.8291Z" fill="black"/>
<path d="M35.9828 76.2699C36.8644 75.2557 38.3183 74.655 39.6548 74.5283C45.4327 73.9808 48.6724 79.1737 51.68 83.2313C52.3286 84.0277 52.9403 85.3235 53.7244 85.9613C54.411 86.5197 55.2494 85.9642 54.9112 84.9671C54.5243 83.8262 54.145 82.695 53.7512 81.5628L51.5183 75.1542L44.9287 55.8226L42.4354 48.6566C41.9026 47.1157 41.4036 45.5722 40.9073 44.0209C40.141 41.6254 41.3566 39.4499 43.8037 38.8292C45.0588 38.7348 46.709 39.2276 47.2771 40.3541C48.4564 42.6925 49.3844 45.4994 50.2996 47.9372L56.2132 63.491L58.3073 69.1917C58.5361 69.8079 58.9306 71.526 59.4954 71.7359C59.9356 71.493 59.5012 70.762 59.3319 70.268C58.8247 68.7888 58.2713 67.3388 57.756 65.8612C56.8268 63.0546 54.9971 59.98 55.9268 56.9337C56.8521 53.9012 60.6523 53.5318 62.4523 55.9513C62.9186 56.5627 63.245 57.5548 63.5247 58.1826C64.0359 59.3297 67.4695 69.0577 68.0708 69.2774C68.3194 69.2252 68.2279 69.2879 68.3745 69.1167C68.4469 68.5748 67.8393 67.5999 67.6337 67.0436C66.9422 65.1732 65.9444 63.3842 65.5257 61.4277C64.465 56.4712 70.5812 54.2627 73.0592 58.5449C73.5131 59.3303 73.7512 60.291 74.1302 61.1214C74.8673 62.7362 75.4979 64.4025 76.1549 66.0514C76.3545 66.5563 76.7019 67.619 77.1112 67.9127L77.2498 67.8894C77.5032 67.3923 77.0589 66.7532 76.8819 66.2125C76.2909 64.4064 75.2477 62.6465 74.8732 60.788C74.2699 57.7934 77.0639 55.2415 79.9559 56.0968C82.6794 56.885 83.2455 59.983 84.0851 62.3675L86.3574 68.6273L90.508 79.9416C91.3131 82.1047 92.1432 84.2861 92.9295 86.4568C93.1972 87.1962 93.3499 88.0468 93.4001 88.8359C93.5783 91.6378 92.0452 94.0133 91.2792 96.5573L91.2472 96.6653L92.7186 100.95C93.6426 103.647 94.7821 106.657 95.5887 109.358L77.9114 115.865C75.6618 116.68 73.3926 117.572 71.1272 118.33C69.8474 115.103 68.4546 110.941 66.7546 107.977C63.8119 102.846 56.0399 103.718 52.4403 99.2428C51.1481 97.6364 50.2599 95.7913 49.2731 93.9866C47.0425 89.8468 44.8479 85.193 42.0175 81.4381C40.7126 79.7069 37.7683 78.1906 35.9828 76.2699Z" fill="#FEFEFE"/>
<path d="M60.251 43.3855C59.8199 43.3848 55.7414 42.7209 55.5611 42.5389C55.4869 42.2973 55.5022 42.4255 55.5843 42.1353C56.1342 42.1777 60.0455 42.6798 60.308 42.9323C60.3641 43.1896 60.3508 43.1025 60.251 43.3855Z" fill="black"/>
<path d="M19.7852 44.9114C19.3679 44.9582 19.3163 45.0062 19.0498 44.7967C18.9792 44.4412 19.5277 44.3125 19.8055 44.2677C23.9101 43.6051 28.0113 42.8884 32.1288 42.3082C32.405 42.2725 32.733 42.2504 32.7717 42.6126C32.6701 42.741 32.5385 42.8041 32.3782 42.8307C28.1761 43.5269 23.9774 44.1484 19.7852 44.9114Z" fill="black"/>
<path d="M69.9555 45.0234C69.3436 45.036 62.8083 43.898 62.4334 43.7138C62.2768 43.4918 62.3254 43.5658 62.3421 43.2278C62.9465 43.2209 69.5068 44.3466 69.9246 44.5532C70.0397 44.7762 69.9997 44.7187 69.9555 45.0234Z" fill="black"/>
<path d="M83.1498 46.9992C82.6282 47.0107 77.301 46.1483 76.8282 45.9663C76.7037 45.7276 76.7494 45.7477 76.7563 45.4373C77.2101 45.4374 82.784 46.3427 83.1 46.4833C83.2355 46.7193 83.188 46.6634 83.1498 46.9992Z" fill="black"/>
<path d="M6.21033 47.0653C5.89212 47.1214 5.4233 47.1751 5.37392 46.7268C5.78978 46.3346 10.0936 45.8841 10.9408 45.7663C11.1996 45.7241 11.2171 45.7073 11.4826 45.7534C11.6816 45.9149 11.6363 45.8174 11.6694 46.0304C11.399 46.4035 7.0055 46.9147 6.21033 47.0653Z" fill="black"/>
<path d="M31.2176 47.5458C31.0404 47.4659 31.1106 47.5254 31.0048 47.3552L31.0571 47.1863C31.4863 46.7296 33.0175 46.0478 33.6705 45.7268L33.8364 45.8065C33.9629 46.0103 33.9419 45.904 33.912 46.1339C33.6141 46.5149 31.7807 47.2833 31.2176 47.5458Z" fill="black"/>
<path d="M61.3321 49.6032L61.2475 49.5858C60.8403 49.5063 54.7081 46.4148 54.4808 46.1679C54.4236 45.9071 54.4359 45.9972 54.5666 45.7031C55.1252 45.8907 61.2019 48.8872 61.4287 49.1691C61.455 49.4181 61.4454 49.3434 61.3321 49.6032Z" fill="black"/>
<path d="M21.3977 52.5601L21.2207 52.4022C21.1359 52.1575 21.129 52.2723 21.2266 52.0455C21.629 51.7428 23.7614 50.6681 24.3519 50.3907C25.9182 49.6547 27.9651 48.4536 29.539 47.8779L29.6804 47.9332C29.7919 48.1283 29.7737 48.0245 29.7188 48.2577C29.3469 48.6437 22.3812 52.0699 21.3977 52.5601Z" fill="black"/>
<path d="M25.9894 59.3198C25.7757 59.2504 25.7674 59.2056 25.7007 59.025C25.8012 58.6472 27.4565 57.1362 27.8029 56.7973L31.6899 53.0077C32.809 51.914 34.7215 49.8438 35.884 48.9744C36.0713 49.089 36.0687 49.0735 36.1695 49.2659C36.1018 49.4941 34.6441 50.8811 34.3579 51.1673L28.7826 56.6588C28.1429 57.2843 26.588 58.8796 25.9894 59.3198Z" fill="black"/>
<path d="M55.7475 52.5259C55.4419 52.4435 52.6196 49.6981 52.4774 49.3882C52.5 49.1204 52.4932 49.2033 52.6708 48.9539C53.251 49.2629 55.5894 51.584 55.9588 52.1483C55.9597 52.3746 55.9575 52.3033 55.7475 52.5259Z" fill="black"/>
<path d="M67.1504 52.3521C66.7152 52.326 63.5935 50.7837 63.1662 50.5047C63.0883 50.2623 63.1357 50.2775 63.2124 49.9812C63.7519 50.0846 66.7287 51.538 67.1986 51.9168C67.2669 52.1452 67.243 52.0779 67.1504 52.3521Z" fill="black"/>
<path d="M36.275 56.5112C36.0767 56.4574 36.085 56.4697 35.9495 56.3173C35.9039 55.95 38.011 52.2687 38.3784 51.592C38.5444 51.654 38.5676 51.679 38.7163 51.7806C38.7848 52.2189 36.6861 55.8514 36.275 56.5112Z" fill="black"/>
<path d="M40.0298 67.2633C39.7834 67.2435 39.7324 67.1979 39.6015 67.0181C39.603 66.3857 40.1632 63.5171 40.3168 62.7248C40.9017 59.7091 41.3087 56.1266 42.0463 53.1882L42.425 53.2475L42.5039 53.3633C42.4374 54.2951 42.0626 56.0717 41.8899 57.041L40.6872 63.805C40.567 64.4613 40.2474 66.7718 40.0298 67.2633Z" fill="black"/>
<path d="M83.86 57.934C83.4004 56.8798 82.9073 56.4428 82.0984 55.6474C84.8404 54.7405 89.5826 55.415 92.2665 56.2792C110.394 62.1156 113.732 87.0216 97.5019 97.2275C96.1159 98.099 95.0101 98.6917 93.4299 99.1987L93.3535 99.2227C93.0385 98.3869 92.7636 97.5607 92.4574 96.736C93.1161 96.3744 93.8999 96.0695 94.5859 95.7284C98.9737 93.5462 102.124 90.0342 104.043 85.539C109.133 73.6142 101.095 59.8156 88.4377 57.9971C86.9372 57.7816 85.3668 57.8705 83.86 57.934Z" fill="#46611E"/>
<path d="M9.35312 58.6619C9.05271 58.6113 9.14843 58.6862 8.99947 58.5059L9.02029 58.3363C9.4065 57.8686 13.2745 56.0601 14.1435 55.6262L14.3418 55.6463C14.5629 55.8228 14.5035 55.7152 14.5692 55.9518C14.4062 56.2824 12.8133 56.9569 12.4175 57.1504C11.4062 57.645 10.389 58.2344 9.35312 58.6619Z" fill="black"/>
<path d="M83.8599 57.9339C85.3666 57.8704 86.9371 57.7815 88.4375 57.997C101.095 59.8154 109.132 73.614 104.043 85.5389C102.124 90.0341 98.9735 93.5461 94.5858 95.7282C93.8997 96.0694 93.116 96.3742 92.4572 96.7357C92.5498 96.2536 92.5892 96.149 92.7931 95.713C100.273 93.2544 105.252 84.89 104.89 77.1738C104.443 67.6306 97.3873 59.8848 87.9657 58.5966C86.6919 58.4223 85.3342 58.5231 84.0585 58.5738C83.9703 58.3991 83.911 58.1282 83.8599 57.9339Z" fill="black"/>
<path d="M32.504 64.0268C32.2527 63.901 32.2768 63.9589 32.1452 63.7546C32.2121 63.3558 34.5622 58.8079 34.8346 58.4294C35.0661 58.5529 35.0508 58.5002 35.1639 58.6931C35.1404 59.0347 32.7799 63.7198 32.504 64.0268Z" fill="black"/>
<path d="M84.0588 58.5741C85.3345 58.5234 86.6922 58.4226 87.9659 58.5969C97.3876 59.8851 104.443 67.6309 104.89 77.174C105.252 84.8903 100.273 93.2547 92.7934 95.7133C93.64 93.6276 94.6986 91.1854 94.5346 88.9177C94.3353 86.1641 92.9017 83.1865 91.9425 80.5334L88.3353 70.598C86.8768 66.6081 85.5453 62.571 84.0588 58.5741Z" fill="#46611E"/>
<path d="M18.1986 67.0342C23.9127 73.8678 20.3821 84.073 11.3451 84.891C1.88536 85.6855 -3.4414 74.7189 2.59653 67.4985C6.56219 62.7564 13.222 62.6913 17.7717 66.6303C17.3952 66.9943 16.4083 67.7917 16.3007 68.2115C16.4115 68.424 16.3313 68.356 16.5284 68.4447C17.0235 68.3459 17.7997 67.4307 18.1986 67.0342Z" fill="#F0915A"/>
<path d="M17.7717 66.6302C18.3174 66.103 19.8577 64.4963 20.4792 64.2917C20.6748 64.3524 20.5909 64.2985 20.7095 64.4945C20.6785 64.8969 18.645 66.6285 18.1986 67.034C17.7997 67.4306 17.0234 68.3457 16.5284 68.4446C16.3313 68.3558 16.4114 68.4239 16.3007 68.2113C16.4083 67.7915 17.3952 66.9942 17.7717 66.6302Z" fill="black"/>
<path d="M26.4328 75.777L26.1724 75.8002C25.9979 75.7143 26.0608 75.7773 25.9955 75.5935C26.0659 75.0319 28.0734 71.1633 28.4556 70.6121C28.6939 70.6588 28.7611 70.6735 28.8654 70.8683C28.6675 71.4428 28.2462 72.2155 27.9715 72.7746C27.4781 73.7788 26.9672 74.7942 26.4328 75.777Z" fill="black"/>
<path d="M44.0404 74.0324C45.4817 73.3476 46.4097 73.091 48.0043 72.9673C48.5752 72.9321 48.9615 72.927 49.5338 72.9457C49.844 73.5382 50.2178 74.7165 50.451 75.3626C51.1211 77.2185 51.6752 79.1115 52.3 80.9849C52.1622 81.1103 51.9742 81.3171 51.8149 81.358C51.3801 80.9266 50.7127 80.0018 50.3178 79.4868C48.8378 77.3309 46.484 75.043 44.0404 74.0324Z" fill="#42104C"/>
<path d="M37.0541 78.7589C36.7487 79.371 36.1119 80.4355 36.0812 81.0592L36.1586 81.2278C36.3971 81.3161 36.2839 81.3161 36.5083 81.2578C36.8545 80.8445 37.3098 79.6706 37.6047 79.0931C38.7876 80.0956 40.3738 81.1961 41.3484 82.346C42.1666 83.3513 42.7848 84.4782 43.453 85.5843C46.3403 90.32 48.4585 95.8055 51.6972 100.31C54.2648 103.881 60.5897 104.379 64.0229 106.764C66.4859 108.474 67.2011 110.652 68.2548 113.275C67.1792 114.232 66.0753 115.316 64.9382 116.17C59.9779 119.837 53.8135 121.246 47.7841 120.376C34.3181 118.434 25.6287 106.117 27.6469 92.7481C28.4716 87.2852 31.2557 82.0008 35.3686 78.2607C35.5526 78.0934 35.645 78.0534 35.8193 77.8472L37.0541 78.7589Z" fill="#42104C"/>
<path d="M37.6046 79.0933C37.3097 79.6707 36.8544 80.8447 36.5081 81.258C36.2837 81.3163 36.397 81.3163 36.1585 81.228L36.0811 81.0594C36.1117 80.4357 36.7486 79.3712 37.0539 78.759C37.217 78.8533 37.4622 78.9846 37.6046 79.0933Z" fill="black"/>
</g>
<defs>
<clipPath id="clip0_21292_7566">
<rect width="108" height="120" fill="white" transform="translate(0 0.689941)"/>
</clipPath>
</defs>
</svg>
