<svg width="147" height="64" viewBox="0 0 147 64" fill="none" xmlns="http://www.w3.org/2000/svg">
<g clip-path="url(#clip0_20538_87727)">
<path d="M104.401 11.0254C104.192 11.0554 104.357 11.3097 104.401 11.4444C104.446 11.5941 104.476 11.7585 104.506 11.9232C104.536 12.2524 104.506 12.5816 104.446 12.8958C104.297 13.5991 103.923 14.2574 103.46 14.7961C103.295 14.9907 103.116 15.1702 102.936 15.3348C102.757 15.4995 102.563 15.6641 102.353 15.8136C102.144 15.9634 101.95 16.098 101.74 16.2327C101.68 16.2627 101.636 16.2926 101.576 16.3224C99.8715 17.295 97.8382 17.7439 95.8797 17.6691C94.5342 17.6092 93.9811 17.3401 93.9811 17.1754C94.011 16.6068 101.666 10.7111 101.905 4.87544C102.009 2.19697 100.529 0.176913 97.8533 0.0721687C95.1771 -0.0325757 92.9944 1.62836 92.8597 4.92032C92.7252 8.04768 94.6389 10.5316 94.5044 13.689C94.4296 15.4846 93.7419 16.6068 92.9196 16.562C92.7103 16.562 92.501 16.4721 92.2468 16.3674C91.5292 15.5443 90.5126 15.0056 89.3464 14.9608C87.0889 14.8709 85.1903 16.6217 85.1005 18.8663C85.0108 21.1256 86.76 23.0261 89.0026 23.1158C91.2601 23.2056 93.1588 21.4549 93.2485 19.2104C93.2485 18.8962 93.2334 18.597 93.1737 18.2977C93.3233 17.9535 93.4727 17.729 93.6522 17.729C94.7434 17.7738 96.7918 22.8764 101.187 23.071C104.028 23.1907 107.212 21.2454 107.391 16.7714C107.466 15.0206 107.107 13.0305 105.762 11.7736C105.538 11.5641 105.298 11.3845 105.029 11.22C104.85 11.1151 104.611 10.9804 104.386 10.9804C104.386 10.9804 104.371 10.9804 104.357 10.9804L104.401 11.0254Z" fill="white"/>
<path d="M33.3204 23.1192C35.5627 23.1192 37.3804 21.3014 37.3804 19.0592C37.3804 16.8169 35.5627 14.9991 33.3204 14.9991C31.0781 14.9991 29.2604 16.8169 29.2604 19.0592C29.2604 21.3014 31.0781 23.1192 33.3204 23.1192Z" fill="white"/>
<path d="M0.108891 52.4593C2.15706 52.4593 3.697 51.4866 3.697 47.9404V22.3829C3.697 18.8365 2.15706 17.8639 0.108891 17.8639V17.1905H13.0708V17.8639C11.0226 17.8639 9.48267 18.8365 9.48267 22.3829V48.9579C9.48267 51.3222 10.2004 52.2349 12.099 52.2349H15.1788C21.1738 52.2349 24.7171 49.1523 26.556 42.4936L27.1689 42.6433L24.9115 53.1027H0.108891V52.4293V52.4593Z" fill="white"/>
<path d="M26.9592 52.4591C29.0074 52.4591 30.5473 51.4865 30.5473 47.9403V32.7074C30.5473 30.1936 29.5158 29.3705 27.1685 29.3257V28.6523C29.8895 28.4429 32.9543 27.8891 35.6304 26.6473L36.0939 26.9016V47.9403C36.0939 51.4865 37.574 52.4591 39.6819 52.4591V53.1325H26.9741V52.4591H26.9592Z" fill="white"/>
<path d="M40.1451 52.4591C42.1933 52.4591 43.733 51.4866 43.733 47.9403V29.1611H40.1451V28.4428C42.4474 28.1886 43.6882 27.3655 44.4059 24.1783C45.5271 19.405 49.1152 14.9907 54.4077 14.9459C57.024 14.901 59.6403 15.9782 60.4625 18.1181C61.0755 19.6144 60.6718 21.5598 58.7732 21.9636C56.8744 22.278 55.4392 20.8414 55.4392 18.4772C55.3944 16.6816 54.8711 15.7539 53.6452 15.7539C51.1784 15.7539 49.2947 20.0185 49.2947 25.959V27.0812H55.7981L54.9758 29.1311H49.2797V47.9103C49.2797 51.4567 51.0737 52.4293 53.5855 52.4293V53.1027H40.16V52.4293L40.1451 52.4591Z" fill="white"/>
<path d="M54.8562 40.2493C54.8562 32.4533 60.4477 26.6026 67.3099 26.6026C73.4097 26.6026 76.9528 31.1665 76.9528 36.4485H60.2983C60.2534 36.7629 60.2534 37.0171 60.2534 37.3164C60.2534 44.6035 63.8414 49.5266 69.5375 49.4817C73.7983 49.4817 76.609 46.6088 77.4313 42.7631L78.149 42.8678C77.222 48.973 72.7668 53.6416 66.7119 53.6416C59.5357 53.6416 54.8713 47.5364 54.8713 40.2493H54.8562ZM69.2983 35.5807C70.8382 35.5807 71.4064 34.8624 71.4064 33.2762C71.4064 30.8672 70.1804 27.3807 66.8913 27.3807C63.6021 27.3807 60.941 31.1216 60.328 35.5956H69.2983V35.5807Z" fill="white"/>
<path d="M81.3486 29.1161C84.3686 28.9066 87.0446 28.5474 90.2142 26.5573L90.6775 26.9164L89.646 31.5402L87.0894 43.7952C86.2224 47.8951 85.4001 50.3043 86.5812 50.3641C87.7024 50.5138 89.6609 48 91.0961 42.4186L91.5597 42.5234C89.5562 51.1423 85.9234 53.9104 83.0528 53.3419C80.1824 52.8332 80.332 49.601 81.4083 44.6183L83.7106 33.7997C84.3835 30.777 83.6061 29.8493 81.3486 29.8043V29.1309V29.1161Z" fill="white"/>
<path d="M96.5233 33.785C97.1961 30.8073 96.3739 29.8346 94.1611 29.8346V29.1612C97.1811 28.9518 99.8573 28.5478 103.027 26.5425L103.43 26.9017L102.459 31.5255L99.7377 44.1995C103.371 33.4706 108.558 26.6024 113.836 26.6024C117.633 26.6024 119.218 29.7299 117.469 35.9396L115.211 44.1545C114.09 48.1499 113.103 50.514 114.284 50.6637C115.361 50.8732 117.514 48.4641 119.308 42.9724L119.771 43.1221C117.215 51.5914 113.462 54.1502 110.592 53.432C107.766 52.7136 108.125 49.5264 109.515 44.6035L111.623 37.2115C113.372 31.2561 112.191 29.7148 110.592 29.7148C107.004 29.7148 101.307 38.9472 97.824 53.1027H92.397L96.4935 33.755L96.5233 33.785Z" fill="white"/>
<path d="M117.483 56.8135C117.483 53.7311 121.579 53.4318 125.167 53.3271C121.729 51.9952 120.607 47.1172 121.729 41.7304C123.567 33.1114 130.086 26.6921 137.112 26.6921C139.415 26.6921 141.014 27.515 142.39 28.742L146.232 26.1833L146.8 26.5424L141.014 53.1174C139.474 60.0905 134.242 63.8912 128.456 63.8912C121.235 63.8912 117.483 59.432 117.483 56.8135ZM128.307 63.0682C132.254 63.0682 134.451 58.4445 135.632 53.1174L138.353 41.1167C135.842 47.5361 131.536 53.5813 127.185 53.6412C123.911 53.746 122.566 54.6736 122.476 56.5142C122.371 59.2375 125.092 63.0831 128.322 63.0831L128.307 63.0682ZM129.637 50.5588C133.076 50.5588 138.249 41.9847 139.684 34.3983C140.401 30.4479 139.729 27.5749 137.127 27.5749C134.361 27.5749 130.355 31.0165 127.843 38.7527C125.332 46.758 126.976 50.5588 129.637 50.5588Z" fill="white"/>
</g>
<defs>
<clipPath id="clip0_20538_87727">
<rect width="146.824" height="64" fill="white"/>
</clipPath>
</defs>
</svg>
