<svg width="215" height="183" viewBox="0 0 215 183" fill="none" xmlns="http://www.w3.org/2000/svg">
<path d="M72.1732 0.810059L83.5689 15.2184C66.8551 26.3406 54.4464 37.9684 46.3428 50.1017C38.7456 61.7295 34.947 72.599 34.947 82.71C34.947 92.3156 40.7715 98.635 52.4205 101.669C62.5501 103.691 71.1602 108.241 78.2509 115.319C85.3416 121.891 88.8869 130.991 88.8869 142.619C88.8869 154.246 84.8351 163.851 76.7315 171.435C68.6278 179.019 59.5112 182.81 49.3816 182.81C36.7197 182.81 25.3239 178.007 15.1944 168.401C5.06478 158.796 0 142.619 0 119.869C0 99.1402 5.8245 78.1601 17.4735 56.9267C29.6289 35.1879 47.8621 16.4822 72.1732 0.810059ZM198.287 0.810059L209.682 15.2184C192.968 26.3406 180.559 37.9684 172.456 50.1017C164.859 61.7295 161.06 72.599 161.06 82.71C161.06 92.3156 166.884 98.635 178.533 101.669C188.663 103.691 197.274 108.241 204.364 115.319C211.454 121.891 215 130.991 215 142.619C215 154.246 210.948 163.851 202.844 171.435C194.741 179.019 185.625 182.81 175.495 182.81C162.833 182.81 151.437 178.007 141.308 168.401C131.178 158.796 126.113 142.619 126.113 119.869C126.113 99.1402 131.938 78.1601 143.587 56.9267C155.742 35.1879 173.975 16.4822 198.287 0.810059Z" fill="#ADC178" fill-opacity="0.3"/>
</svg>
